<svg version="1.1" id="Layer_1" xmlns="http://www.w3.org/2000/svg" xmlns:xlink="http://www.w3.org/1999/xlink" x="0px" y="0px"
	 width="100%" viewBox="0 0 512 512" enable-background="new 0 0 512 512" xml:space="preserve">
<path fill="#FCFAFF" opacity="1.000000" stroke="none" 
	d="
M244.000000,513.000000 
	C162.686386,513.000000 81.872772,513.000000 1.029580,513.000000 
	C1.029580,342.394684 1.029580,171.789383 1.029580,1.092035 
	C171.563629,1.092035 342.127350,1.092035 512.845520,1.092035 
	C512.845520,171.666565 512.845520,342.333252 512.845520,513.000000 
	C423.456024,513.000000 333.977997,513.000000 244.000000,513.000000 
M330.500000,194.867371 
	C314.508148,194.867325 298.516327,194.857040 282.524475,194.871567 
	C274.498444,194.878860 271.180511,197.310242 269.238403,204.826431 
	C260.380981,239.106033 251.547745,273.391937 242.754379,307.688019 
	C240.809113,315.274963 244.535110,320.101105 252.350983,320.114960 
	C278.337646,320.160980 304.324524,320.152405 330.311218,320.118347 
	C336.608582,320.110077 340.381683,317.412323 341.974030,311.305969 
	C351.033356,276.564941 360.032410,241.807922 368.915955,207.021637 
	C370.864777,199.390274 367.031494,194.919128 358.985931,194.878601 
	C349.824188,194.832458 340.661987,194.867462 330.500000,194.867371 
M102.162247,214.664749 
	C94.281998,245.259476 86.375221,275.847412 78.537567,306.453064 
	C76.168663,315.703491 79.658554,320.120911 89.172096,320.127808 
	C110.835831,320.143463 132.499573,320.133331 154.163315,320.133514 
	C171.102982,320.133667 171.233459,320.113190 175.470703,303.789093 
	C183.825912,271.600494 192.111786,239.393784 200.365845,207.179062 
	C202.242996,199.852753 198.794556,194.928574 191.675644,194.904831 
	C166.512665,194.820892 141.349182,194.839951 116.186035,194.894775 
	C110.594658,194.906967 106.738907,197.919312 105.167145,203.265411 
	C104.135941,206.772888 103.294380,210.336136 102.162247,214.664749 
M252.744186,196.520355 
	C250.530762,195.969574 248.332901,195.033676 246.100876,194.943573 
	C240.447113,194.715302 234.778000,194.851105 229.115112,194.869705 
	C221.124344,194.895981 218.010681,197.198135 215.988892,204.973999 
	C207.624161,237.145142 199.327637,269.334015 191.000610,301.514954 
	C186.171677,320.177002 181.339584,338.838257 176.494888,357.496216 
	C173.916962,367.424347 177.438828,371.987244 187.735641,372.001953 
	C192.732346,372.009094 197.729187,372.025421 202.725754,371.997986 
	C210.130753,371.957367 213.905380,369.163300 215.717285,362.157532 
	C229.032700,310.673065 242.319824,259.181305 255.597992,207.687210 
	C256.599701,203.802429 256.541077,200.074554 252.744186,196.520355 
M362.095062,283.602814 
	C359.966675,291.978455 357.692078,300.320465 355.757050,308.740540 
	C354.260712,315.251709 358.048920,319.977478 364.637054,320.103027 
	C370.796661,320.220337 376.960327,320.159821 383.121948,320.126465 
	C390.251251,320.087891 393.620087,317.701324 395.388611,310.886139 
	C404.403381,276.147125 413.357178,241.392212 422.249756,206.621719 
	C424.036469,199.635452 420.239441,194.976974 412.922363,194.883743 
	C406.928040,194.807343 400.931885,194.839539 394.936798,194.874634 
	C387.827911,194.916275 384.596893,197.296310 382.788605,204.181168 
	C375.908752,230.375595 369.107941,256.590790 362.095062,283.602814 
M210.815598,167.343964 
	C211.862244,163.157623 213.098709,159.007843 213.913147,154.776810 
	C215.300659,147.568878 211.619766,143.129150 204.288422,143.015106 
	C198.135254,142.919388 191.978180,142.918381 185.825134,143.017624 
	C180.082336,143.110260 176.268036,145.767441 174.668671,151.197220 
	C172.652603,158.041718 170.830948,164.956680 169.273636,171.919128 
	C167.905289,178.036636 171.858063,182.849747 178.136734,182.974274 
	C184.787796,183.106216 191.443573,183.024078 198.097153,182.997513 
	C203.432632,182.976212 206.789658,180.087128 208.598938,175.319382 
	C209.477417,173.004425 209.935120,170.529785 210.815598,167.343964 
M432.113800,168.689346 
	C433.383453,163.872849 434.868713,159.100800 435.872864,154.229584 
	C437.428986,146.680649 433.786591,142.151001 426.246857,142.018143 
	C420.258972,141.912628 414.266937,141.933853 408.278259,142.012619 
	C402.023499,142.094864 398.167084,144.894424 396.507843,150.759537 
	C394.655151,157.308228 392.923340,163.897003 391.365967,170.521713 
	C389.816010,177.115189 393.805725,181.907547 400.726410,181.993607 
	C405.550720,182.053604 410.376373,182.004822 415.201447,182.004837 
	C427.042816,182.004868 428.779419,180.708664 432.113800,168.689346 
M116.867065,158.254196 
	C115.683708,162.750641 114.342888,167.212814 113.355423,171.751877 
	C112.013237,177.921432 115.799530,182.823334 122.035500,182.966583 
	C128.851913,183.123138 135.674988,183.040390 142.494583,182.987534 
	C146.927246,182.953186 150.626434,180.810150 151.907837,176.813339 
	C154.431915,168.940445 156.580597,160.881088 158.007401,152.745026 
	C159.010559,147.024658 155.164154,143.214081 149.317322,143.050385 
	C142.668869,142.864273 136.009705,142.911209 129.358231,143.028595 
	C124.131294,143.120819 120.612083,145.859299 118.865288,150.736664 
	C118.084435,152.916962 117.627106,155.213120 116.867065,158.254196 
z"/>
<path fill="#995CD6" opacity="1.000000" stroke="none" 
	d="
M331.000000,194.867279 
	C340.661987,194.867462 349.824188,194.832458 358.985931,194.878601 
	C367.031494,194.919128 370.864777,199.390274 368.915955,207.021637 
	C360.032410,241.807922 351.033356,276.564941 341.974030,311.305969 
	C340.381683,317.412323 336.608582,320.110077 330.311218,320.118347 
	C304.324524,320.152405 278.337646,320.160980 252.350983,320.114960 
	C244.535110,320.101105 240.809113,315.274963 242.754379,307.688019 
	C251.547745,273.391937 260.380981,239.106033 269.238403,204.826431 
	C271.180511,197.310242 274.498444,194.878860 282.524475,194.871567 
	C298.516327,194.857040 314.508148,194.867325 331.000000,194.867279 
M299.164642,306.042664 
	C303.360321,304.368591 304.906891,300.769562 305.935669,296.773041 
	C309.953369,281.165466 313.978607,265.559784 318.012024,249.956238 
	C320.549011,240.141800 323.153870,230.344604 325.634521,220.516022 
	C327.038452,214.953613 325.528809,210.967514 321.478302,208.899246 
	C317.057556,206.641907 311.368439,208.075546 308.147858,212.452850 
	C307.190033,213.754684 306.465240,215.346588 306.056030,216.915710 
	C299.346039,242.643509 292.657623,268.377167 286.070679,294.136719 
	C283.686096,303.462189 288.851746,308.455505 299.164642,306.042664 
z"/>
<path fill="#9A5CD6" opacity="1.000000" stroke="none" 
	d="
M102.265060,214.269577 
	C103.294380,210.336136 104.135941,206.772888 105.167145,203.265411 
	C106.738907,197.919312 110.594658,194.906967 116.186035,194.894775 
	C141.349182,194.839951 166.512665,194.820892 191.675644,194.904831 
	C198.794556,194.928574 202.242996,199.852753 200.365845,207.179062 
	C192.111786,239.393784 183.825912,271.600494 175.470703,303.789093 
	C171.233459,320.113190 171.102982,320.133667 154.163315,320.133514 
	C132.499573,320.133331 110.835831,320.143463 89.172096,320.127808 
	C79.658554,320.120911 76.168663,315.703491 78.537567,306.453064 
	C86.375221,275.847412 94.281998,245.259476 102.265060,214.269577 
M119.314865,296.764801 
	C118.727798,301.835297 121.066833,305.285095 125.737480,306.662445 
	C130.403091,308.038300 134.270660,306.088562 136.893082,302.082031 
	C137.868637,300.591583 138.470306,298.783508 138.927185,297.037750 
	C143.509903,279.527069 148.032272,262.000610 152.560028,244.475555 
	C154.678070,236.277496 156.879044,228.098633 158.836685,219.862167 
	C160.136688,214.392548 158.252228,210.407196 153.966537,208.617508 
	C149.774094,206.866760 144.553909,208.558578 141.784348,212.816376 
	C140.813507,214.308914 140.201309,216.109421 139.748749,217.853210 
	C132.990906,243.892670 126.287277,269.946228 119.314865,296.764801 
z"/>
<path fill="#9A5CD6" opacity="1.000000" stroke="none" 
	d="
M253.062500,196.772308 
	C256.541077,200.074554 256.599701,203.802429 255.597992,207.687210 
	C242.319824,259.181305 229.032700,310.673065 215.717285,362.157532 
	C213.905380,369.163300 210.130753,371.957367 202.725754,371.997986 
	C197.729187,372.025421 192.732346,372.009094 187.735641,372.001953 
	C177.438828,371.987244 173.916962,367.424347 176.494888,357.496216 
	C181.339584,338.838257 186.171677,320.177002 191.000610,301.514954 
	C199.327637,269.334015 207.624161,237.145142 215.988892,204.973999 
	C218.010681,197.198135 221.124344,194.895981 229.115112,194.869705 
	C234.778000,194.851105 240.447113,194.715302 246.100876,194.943573 
	C248.332901,195.033676 250.530762,195.969574 253.062500,196.772308 
z"/>
<path fill="#9A5CD6" opacity="1.000000" stroke="none" 
	d="
M362.186310,283.200500 
	C369.107941,256.590790 375.908752,230.375595 382.788605,204.181168 
	C384.596893,197.296310 387.827911,194.916275 394.936798,194.874634 
	C400.931885,194.839539 406.928040,194.807343 412.922363,194.883743 
	C420.239441,194.976974 424.036469,199.635452 422.249756,206.621719 
	C413.357178,241.392212 404.403381,276.147125 395.388611,310.886139 
	C393.620087,317.701324 390.251251,320.087891 383.121948,320.126465 
	C376.960327,320.159821 370.796661,320.220337 364.637054,320.103027 
	C358.048920,319.977478 354.260712,315.251709 355.757050,308.740540 
	C357.692078,300.320465 359.966675,291.978455 362.186310,283.200500 
z"/>
<path fill="#FF9F03" opacity="1.000000" stroke="none" 
	d="
M210.699463,167.735703 
	C209.935120,170.529785 209.477417,173.004425 208.598938,175.319382 
	C206.789658,180.087128 203.432632,182.976212 198.097153,182.997513 
	C191.443573,183.024078 184.787796,183.106216 178.136734,182.974274 
	C171.858063,182.849747 167.905289,178.036636 169.273636,171.919128 
	C170.830948,164.956680 172.652603,158.041718 174.668671,151.197220 
	C176.268036,145.767441 180.082336,143.110260 185.825134,143.017624 
	C191.978180,142.918381 198.135254,142.919388 204.288422,143.015106 
	C211.619766,143.129150 215.300659,147.568878 213.913147,154.776810 
	C213.098709,159.007843 211.862244,163.157623 210.699463,167.735703 
z"/>
<path fill="#FF9F03" opacity="1.000000" stroke="none" 
	d="
M432.044983,169.086441 
	C428.779419,180.708664 427.042816,182.004868 415.201447,182.004837 
	C410.376373,182.004822 405.550720,182.053604 400.726410,181.993607 
	C393.805725,181.907547 389.816010,177.115189 391.365967,170.521713 
	C392.923340,163.897003 394.655151,157.308228 396.507843,150.759537 
	C398.167084,144.894424 402.023499,142.094864 408.278259,142.012619 
	C414.266937,141.933853 420.258972,141.912628 426.246857,142.018143 
	C433.786591,142.151001 437.428986,146.680649 435.872864,154.229584 
	C434.868713,159.100800 433.383453,163.872849 432.044983,169.086441 
z"/>
<path fill="#FF9F03" opacity="1.000000" stroke="none" 
	d="
M116.945007,157.855438 
	C117.627106,155.213120 118.084435,152.916962 118.865288,150.736664 
	C120.612083,145.859299 124.131294,143.120819 129.358231,143.028595 
	C136.009705,142.911209 142.668869,142.864273 149.317322,143.050385 
	C155.164154,143.214081 159.010559,147.024658 158.007401,152.745026 
	C156.580597,160.881088 154.431915,168.940445 151.907837,176.813339 
	C150.626434,180.810150 146.927246,182.953186 142.494583,182.987534 
	C135.674988,183.040390 128.851913,183.123138 122.035500,182.966583 
	C115.799530,182.823334 112.013237,177.921432 113.355423,171.751877 
	C114.342888,167.212814 115.683708,162.750641 116.945007,157.855438 
z"/>
<path fill="#FBF8FE" opacity="1.000000" stroke="none" 
	d="
M298.796387,306.182373 
	C288.851746,308.455505 283.686096,303.462189 286.070679,294.136719 
	C292.657623,268.377167 299.346039,242.643509 306.056030,216.915710 
	C306.465240,215.346588 307.190033,213.754684 308.147858,212.452850 
	C311.368439,208.075546 317.057556,206.641907 321.478302,208.899246 
	C325.528809,210.967514 327.038452,214.953613 325.634521,220.516022 
	C323.153870,230.344604 320.549011,240.141800 318.012024,249.956238 
	C313.978607,265.559784 309.953369,281.165466 305.935669,296.773041 
	C304.906891,300.769562 303.360321,304.368591 298.796387,306.182373 
z"/>
<path fill="#FBF8FE" opacity="1.000000" stroke="none" 
	d="
M119.442871,296.380615 
	C126.287277,269.946228 132.990906,243.892670 139.748749,217.853210 
	C140.201309,216.109421 140.813507,214.308914 141.784348,212.816376 
	C144.553909,208.558578 149.774094,206.866760 153.966537,208.617508 
	C158.252228,210.407196 160.136688,214.392548 158.836685,219.862167 
	C156.879044,228.098633 154.678070,236.277496 152.560028,244.475555 
	C148.032272,262.000610 143.509903,279.527069 138.927185,297.037750 
	C138.470306,298.783508 137.868637,300.591583 136.893082,302.082031 
	C134.270660,306.088562 130.403091,308.038300 125.737480,306.662445 
	C121.066833,305.285095 118.727798,301.835297 119.442871,296.380615 
z"/>
</svg>