<svg width="132" height="41" viewBox="0 0 132 41" fill="none" xmlns="http://www.w3.org/2000/svg">
<g clip-path="url(#clip0_11_300)">
<path d="M0 0H132V41H0V0Z" fill="#0A1F33"/>
<path fill-rule="evenodd" clip-rule="evenodd" d="M14.4689 5.89866C14.505 5.78469 14.604 5.70637 14.7176 5.70219C14.8311 5.69816 14.9351 5.76917 14.9784 5.88036C15.551 7.35057 16.829 10.6309 17.0672 11.2425C17.0921 11.3063 17.0947 11.3777 17.0737 11.4434C16.7315 12.5314 13.7499 22.0041 13.2807 23.4945C13.2439 23.6121 13.1399 23.6915 13.0227 23.6915C12.3489 23.6915 10.1198 23.6915 9.22368 23.6915C9.13612 23.6915 9.05397 23.6469 9.00286 23.5718C8.95177 23.4966 8.938 23.3998 8.96568 23.3121C9.69062 21.0182 13.4881 9.00219 14.4689 5.89866Z" fill="white"/>
<path fill-rule="evenodd" clip-rule="evenodd" d="M17.4611 5.89866C17.425 5.78469 17.326 5.70637 17.2125 5.70219C17.0991 5.69816 16.9951 5.76917 16.9518 5.88036C16.379 7.35057 15.101 10.6309 14.8629 11.2425C14.838 11.3063 14.8355 11.3777 14.8563 11.4434C15.1985 12.5314 18.1802 22.0041 18.6493 23.4945C18.6862 23.6121 18.7902 23.6915 18.9073 23.6915C19.5812 23.6915 21.8103 23.6915 22.7064 23.6915C22.7939 23.6915 22.8762 23.6469 22.9272 23.5718C22.9783 23.4966 22.992 23.3998 22.9644 23.3121C22.2394 21.0182 18.4421 9.00219 17.4611 5.89866Z" fill="white"/>
<path fill-rule="evenodd" clip-rule="evenodd" d="M14.4076 25.3048C14.3726 25.1936 14.2744 25.1188 14.1636 25.1188H8.46192C8.35689 25.1188 8.26238 25.1864 8.22324 25.2897C7.82431 26.3463 5.69409 31.9863 5.12289 33.4984C5.0912 33.5824 5.10088 33.6773 5.14862 33.7523C5.1965 33.8269 5.2762 33.8717 5.36157 33.8717C6.22778 33.8717 8.32286 33.8717 8.94041 33.8717C9.04544 33.8717 9.14008 33.804 9.17909 33.7007C9.44311 33.0015 10.4387 30.3654 10.7028 29.6664C10.7419 29.5631 10.8364 29.4952 10.9415 29.4952C12.0158 29.4952 12.8428 29.4952 15.3698 29.4952C15.4524 29.4952 15.5301 29.4531 15.5784 29.3822C15.6267 29.3111 15.6398 29.22 15.6138 29.1369C15.3342 28.2493 14.6175 25.9718 14.4076 25.3048Z" fill="#0095D4"/>
<path fill-rule="evenodd" clip-rule="evenodd" d="M17.4444 25.3048C17.4793 25.1936 17.5777 25.1188 17.6883 25.1188H23.3901C23.4951 25.1188 23.5896 25.1864 23.6288 25.2897C24.0276 26.3463 26.158 31.9863 26.729 33.4984C26.7608 33.5824 26.7511 33.6773 26.7033 33.7523C26.6554 33.8269 26.5758 33.8717 26.4903 33.8717C25.6242 33.8717 23.5292 33.8717 22.9116 33.8717C22.8065 33.8717 22.7119 33.804 22.6729 33.7007C22.4089 33.0015 21.4133 30.3654 21.1492 29.6664C21.1101 29.5631 21.0156 29.4952 20.9105 29.4952C19.8362 29.4952 19.0092 29.4952 16.4821 29.4952C16.3995 29.4952 16.322 29.4531 16.2737 29.3822C16.2254 29.3111 16.2121 29.22 16.2383 29.1369C16.5177 28.2493 17.2345 25.9718 17.4444 25.3048Z" fill="#0095D4"/>
<path fill-rule="evenodd" clip-rule="evenodd" d="M17.5153 5.70203C17.5885 5.70203 17.6544 5.77383 17.6815 5.88315C17.9273 6.87108 19.1078 11.6169 19.4581 13.0257C19.4801 13.1144 19.4734 13.2151 19.4402 13.2942C19.4068 13.3734 19.3513 13.4207 19.2919 13.4207C18.6881 13.4207 17.2282 13.4207 16.7979 13.4207C16.7247 13.4207 16.6588 13.3491 16.6317 13.2397C16.3859 12.2518 15.2054 7.50593 14.8551 6.09713C14.8331 6.00844 14.8398 5.9078 14.873 5.82872C14.9064 5.74948 14.9619 5.70203 15.0214 5.70203C15.6251 5.70203 17.085 5.70203 17.5153 5.70203Z" fill="white"/>
<path d="M33.4035 20.1742L31.68 28.7C31.5706 29.225 31.5159 29.7046 31.5159 30.1391C31.5159 30.6821 31.6345 31.1075 31.8715 31.4152C32.1269 31.723 32.5281 31.8768 33.0753 31.8768C33.5495 31.8768 33.9781 31.7682 34.3611 31.551C34.7623 31.3157 35.1271 31.0079 35.4554 30.6278C36.2214 29.7589 36.7138 28.7634 36.9327 27.6411L38.4373 20.1742H41.7476L39.4222 31.6596H41.1457L40.6259 34.3477H38.2732C37.6166 34.3477 37.0786 34.1757 36.6591 33.8318C36.2579 33.4879 36.0572 32.9992 36.0572 32.3656C36.0572 32.2207 36.0664 32.076 36.0846 31.9311C36.1028 31.7863 36.1211 31.6596 36.1393 31.551L36.2214 31.198H36.0572C35.5283 32.3022 34.9082 33.1621 34.1969 33.7775C33.4856 34.3748 32.601 34.6735 31.5432 34.6735C30.4124 34.6735 29.5553 34.3477 28.9716 33.696C28.388 33.0444 28.0962 32.1212 28.0962 30.9265C28.0962 30.6007 28.1144 30.2839 28.1509 29.9762C28.1874 29.6503 28.2421 29.3064 28.3151 28.9444L30.0933 20.1742H33.4035ZM47.2237 34.3477C45.254 34.3477 44.2691 33.5422 44.2691 31.9311C44.2691 31.7863 44.2783 31.6233 44.2965 31.4424C44.3148 31.2432 44.3422 31.0442 44.3786 30.845L45.9927 22.8622H43.9408L44.4606 20.1742H45.4729C46.0383 20.1742 46.4122 20.0656 46.5945 19.8483C46.7952 19.6131 46.9411 19.251 47.0322 18.7622L47.5247 16.2914H50.6161L49.8501 20.1742H52.7226L52.1755 22.8622H49.3029L47.5247 31.6596H50.2331L49.6859 34.3477H47.2237ZM58.3286 34.6735C56.6507 34.6735 55.3102 34.1667 54.307 33.153C53.304 32.1392 52.8024 30.6821 52.8024 28.7814C52.8024 27.5324 52.9848 26.3649 53.3495 25.2788C53.7143 24.1927 54.2249 23.2515 54.8815 22.455C55.5381 21.6404 56.3133 21.0068 57.2069 20.5543C58.1007 20.0836 59.0855 19.8483 60.1615 19.8483C61.8395 19.8483 63.18 20.3551 64.1831 21.3689C65.1863 22.3826 65.6877 23.8397 65.6877 25.7404C65.6877 26.9894 65.5054 28.1569 65.1406 29.243C64.7759 30.3291 64.2651 31.2795 63.6086 32.094C62.952 32.8905 62.1678 33.524 61.2558 33.9947C60.3622 34.4472 59.3865 34.6735 58.3286 34.6735ZM58.5201 31.9583C59.3408 31.9583 60.0339 31.6596 60.5992 31.0622C61.1829 30.4649 61.5841 29.596 61.803 28.4556L62.2954 26.0934C62.3319 25.9124 62.3593 25.7584 62.3775 25.6318C62.3958 25.4869 62.4048 25.315 62.4048 25.1159C62.4048 24.3556 62.1951 23.7402 61.7756 23.2695C61.3744 22.7988 60.7726 22.5636 59.97 22.5636C59.1493 22.5636 58.4472 22.8622 57.8635 23.4596C57.2981 24.0569 56.906 24.9258 56.6871 26.0662L56.1947 28.4556C56.1583 28.6005 56.1309 28.7452 56.1126 28.8901C56.0944 29.0349 56.0853 29.2068 56.0853 29.406C56.0853 30.1662 56.2859 30.7816 56.6871 31.2523C57.1066 31.723 57.7177 31.9583 58.5201 31.9583ZM100.29 34.3477C99.6335 34.3477 99.0955 34.1757 98.676 33.8318C98.2566 33.4879 98.0468 33.0081 98.0468 32.3927C98.0468 32.2478 98.0559 32.094 98.0741 31.9311C98.1106 31.7682 98.138 31.6415 98.1562 31.551L98.2383 31.1165H98.1015C97.5179 32.275 96.8704 33.1621 96.1591 33.7775C95.4478 34.3748 94.545 34.6735 93.4507 34.6735C92.7941 34.6735 92.2106 34.5558 91.6998 34.3205C91.2074 34.0671 90.797 33.7141 90.4687 33.2616C90.1404 32.8091 89.8942 32.275 89.7301 31.6596C89.5659 31.0442 89.4839 30.3563 89.4839 29.596C89.4839 28.2203 89.648 26.9442 89.9763 25.7675C90.3046 24.5728 90.7606 23.5411 91.3442 22.6722C91.946 21.7852 92.6573 21.0973 93.478 20.6086C94.3171 20.1018 95.2289 19.8483 96.2138 19.8483C97.1805 19.8483 97.992 20.1018 98.6486 20.6086C99.3052 21.1154 99.6974 21.7761 99.825 22.5907H99.9618L100.454 20.1742H103.764L101.439 31.6596H103.163L102.643 34.3477H100.29ZM94.9554 31.9311C95.4843 31.9311 95.9586 31.8045 96.3779 31.551C96.8157 31.2795 97.1896 30.9627 97.4996 30.6007C97.8644 30.2025 98.1653 29.7498 98.4024 29.243C98.6396 28.718 98.8219 28.166 98.9495 27.5867L99.442 25.1702C99.5879 24.4462 99.4238 23.8397 98.9495 23.351C98.4936 22.8442 97.8279 22.5907 96.9525 22.5907C95.0739 22.5907 93.8976 23.7583 93.4233 26.0934L93.0403 28.0483C93.0039 28.2475 92.9674 28.4919 92.9309 28.7814C92.8945 29.071 92.8762 29.3245 92.8762 29.5417C92.8762 30.2657 93.0495 30.845 93.396 31.2795C93.7608 31.7139 94.2806 31.9311 94.9554 31.9311ZM109.206 34.3477C107.236 34.3477 106.251 33.5422 106.251 31.9311C106.251 31.7863 106.26 31.6233 106.278 31.4424C106.297 31.2432 106.324 31.0442 106.36 30.845L107.975 22.8622H105.923L106.443 20.1742H107.455C108.02 20.1742 108.394 20.0656 108.576 19.8483C108.777 19.6131 108.923 19.251 109.014 18.7622L109.507 16.2914H112.598L111.832 20.1742H114.704L114.157 22.8622H111.285L109.507 31.6596H112.215L111.668 34.3477H109.206ZM120.611 34.6735C118.678 34.6735 117.219 34.1396 116.234 33.0715C115.268 32.0035 114.784 30.5192 114.784 28.6185C114.784 27.4781 114.967 26.3829 115.331 25.3331C115.696 24.2651 116.207 23.3238 116.863 22.5093C117.538 21.6947 118.341 21.0521 119.271 20.5814C120.219 20.0927 121.277 19.8483 122.444 19.8483C123.01 19.8483 123.584 19.9207 124.168 20.0656C124.752 20.1922 125.28 20.4094 125.755 20.7172C126.229 21.0068 126.621 21.4051 126.931 21.9119C127.241 22.4187 127.396 23.0343 127.396 23.7583C127.396 25.2426 126.657 26.4011 125.18 27.2338C123.721 28.0664 121.377 28.519 118.149 28.5914C118.094 28.9535 118.067 29.2159 118.067 29.3788C118.067 30.1571 118.286 30.7816 118.724 31.2523C119.161 31.723 119.873 31.9583 120.858 31.9583C121.569 31.9583 122.216 31.8045 122.8 31.4967C123.384 31.1889 123.986 30.655 124.606 29.8947L126.657 31.5781C125.764 32.7185 124.824 33.524 123.84 33.9947C122.873 34.4472 121.797 34.6735 120.611 34.6735ZM122.225 22.4007C121.314 22.4007 120.538 22.6993 119.9 23.2967C119.262 23.894 118.842 24.7086 118.642 25.7404L118.505 26.4192C119.672 26.3649 120.621 26.2743 121.35 26.1477C122.098 26.0028 122.672 25.8309 123.074 25.6318C123.493 25.4326 123.776 25.1973 123.922 24.9258C124.068 24.6543 124.14 24.3465 124.14 24.0026C124.14 23.6768 124.077 23.4144 123.949 23.2152C123.84 22.998 123.694 22.8351 123.511 22.7265C123.329 22.5998 123.119 22.5184 122.882 22.4821C122.663 22.4278 122.444 22.4007 122.225 22.4007Z" fill="white"/>
<path d="M84.2888 20.8258H84.1246L81.6351 24.3285L76.9022 30.8179L74.6589 24.057L73.6193 20.7987H73.4825L70.7468 34.3477H67.4365L71.2666 15.3954H75.0419L77.9418 24.7901H78.0512L84.6718 15.3954H88.6933L84.8633 34.3477H81.553L84.2888 20.8258Z" fill="#0095D4"/>
</g>
<defs>
<clipPath id="clip0_11_300">
<rect width="132" height="41" fill="white"/>
</clipPath>
</defs>
</svg>
