<svg width="293" height="91" viewBox="0 0 293 91" fill="none" xmlns="http://www.w3.org/2000/svg">
<g clip-path="url(#clip0_21_1098)">
<path d="M0 0H293V91H0V0Z" fill="#0A1F33"/>
<path fill-rule="evenodd" clip-rule="evenodd" d="M32.1162 13.0921C32.1964 12.8391 32.4162 12.6653 32.6682 12.656C32.9202 12.6471 33.151 12.8047 33.2472 13.0515C34.5182 16.3146 37.355 23.5953 37.8836 24.9527C37.9389 25.0945 37.9446 25.2528 37.8982 25.3987C37.1385 27.8135 30.5204 48.8384 29.4789 52.1463C29.397 52.4073 29.1662 52.5835 28.9062 52.5835C27.4105 52.5835 22.4625 52.5835 20.4734 52.5835C20.2791 52.5835 20.0967 52.4844 19.9833 52.3178C19.8699 52.1508 19.8393 51.936 19.9008 51.7413C21.5099 46.6502 29.9391 19.9804 32.1162 13.0921Z" fill="white"/>
<path fill-rule="evenodd" clip-rule="evenodd" d="M38.7589 13.0921C38.6787 12.8391 38.4589 12.6653 38.2069 12.656C37.9552 12.6471 37.7244 12.8047 37.6282 13.0515C36.3569 16.3146 33.5201 23.5953 32.9915 24.9527C32.9362 25.0945 32.9308 25.2528 32.9769 25.3987C33.7366 27.8135 40.3551 48.8384 41.3962 52.1463C41.4782 52.4073 41.7089 52.5835 41.9688 52.5835C43.4648 52.5835 48.4127 52.5835 50.4018 52.5835C50.5961 52.5835 50.7786 52.4844 50.8918 52.3178C51.0054 52.1508 51.0357 51.936 50.9744 51.7413C49.3652 46.6502 40.9362 19.9804 38.7589 13.0921Z" fill="white"/>
<path fill-rule="evenodd" clip-rule="evenodd" d="M31.9802 56.1642C31.9025 55.9174 31.6845 55.7513 31.4386 55.7513H18.7825C18.5494 55.7513 18.3396 55.9014 18.2527 56.1307C17.3672 58.4759 12.6388 70.9938 11.3709 74.35C11.3006 74.5365 11.3221 74.7471 11.428 74.9135C11.5343 75.0792 11.7112 75.1786 11.9007 75.1786C13.8234 75.1786 18.4739 75.1786 19.8447 75.1786C20.0778 75.1786 20.2879 75.0283 20.3745 74.799C20.9605 73.2471 23.1704 67.3963 23.7567 65.8448C23.8433 65.6155 24.0531 65.4648 24.2865 65.4648C26.6712 65.4648 28.5067 65.4648 34.1159 65.4648C34.2993 65.4648 34.4718 65.3714 34.579 65.2141C34.6862 65.0562 34.7153 64.8541 34.6576 64.6696C34.037 62.6996 32.446 57.6446 31.9802 56.1642Z" fill="#0095D4"/>
<path fill-rule="evenodd" clip-rule="evenodd" d="M38.7212 56.1642C38.7987 55.9174 39.017 55.7513 39.2626 55.7513H51.9187C52.1519 55.7513 52.3617 55.9014 52.4485 56.1307C53.3339 58.4759 58.0626 70.9938 59.3302 74.35C59.4007 74.5365 59.3791 74.7471 59.2731 74.9135C59.1669 75.0792 58.9902 75.1786 58.8004 75.1786C56.8778 75.1786 52.2275 75.1786 50.8566 75.1786C50.6234 75.1786 50.4133 75.0283 50.3268 74.799C49.7408 73.2471 47.531 67.3963 46.9447 65.8448C46.8578 65.6155 46.648 65.4648 46.4148 65.4648C44.0302 65.4648 42.1944 65.4648 36.5852 65.4648C36.4018 65.4648 36.2297 65.3714 36.1225 65.2141C36.0153 65.0562 35.9859 64.8541 36.0439 64.6696C36.6642 62.6996 38.2552 57.6446 38.7212 56.1642Z" fill="#0095D4"/>
<path fill-rule="evenodd" clip-rule="evenodd" d="M38.8791 12.6556C39.0416 12.6556 39.1879 12.815 39.248 13.0576C39.7937 15.2504 42.414 25.7839 43.1915 28.9107C43.2404 29.1076 43.2255 29.3309 43.1518 29.5065C43.0777 29.6823 42.9544 29.7873 42.8226 29.7873C41.4824 29.7873 38.2418 29.7873 37.2866 29.7873C37.1242 29.7873 36.9778 29.6283 36.9177 29.3857C36.3721 27.1929 33.7518 16.6594 32.9742 13.5326C32.9253 13.3357 32.9402 13.1124 33.014 12.9368C33.088 12.761 33.2113 12.6556 33.3434 12.6556C34.6833 12.6556 37.9239 12.6556 38.8791 12.6556Z" fill="white"/>
<path d="M74.1455 44.7768L70.3198 63.7C70.0769 64.8652 69.9554 65.9298 69.9554 66.894C69.9554 68.0993 70.2187 69.0434 70.7449 69.7265C71.3117 70.4096 72.2023 70.751 73.4168 70.751C74.4694 70.751 75.4207 70.5099 76.2709 70.0278C77.1614 69.5056 77.9712 68.8225 78.6999 67.9788C80.4002 66.0503 81.4932 63.8407 81.979 61.3497L85.3189 44.7768H92.6667L87.5051 70.2689H91.3308L90.177 76.2351H84.9546C83.4972 76.2351 82.303 75.8533 81.3718 75.0901C80.4813 74.3268 80.0358 73.242 80.0358 71.8358C80.0358 71.5142 80.0562 71.193 80.0966 70.8715C80.1369 70.55 80.1776 70.2689 80.218 70.0278L80.4002 69.2444H80.0358C78.8617 71.695 77.4854 73.6036 75.9065 74.9695C74.3277 76.2954 72.3641 76.9583 70.0161 76.9583C67.5061 76.9583 65.6035 76.2351 64.308 74.7887C63.0124 73.3424 62.3647 71.2934 62.3647 68.6417C62.3647 67.9185 62.4051 67.2155 62.4862 66.5324C62.5673 65.8093 62.6887 65.046 62.8506 64.2424L66.7977 44.7768H74.1455ZM104.822 76.2351C100.45 76.2351 98.2638 74.4473 98.2638 70.8715C98.2638 70.55 98.2841 70.1884 98.3245 69.7868C98.3652 69.3447 98.4259 68.903 98.5067 68.4609L102.089 50.743H97.5351L98.6889 44.7768H100.936C102.191 44.7768 103.021 44.5358 103.425 44.0536C103.871 43.5314 104.195 42.7278 104.397 41.643L105.49 36.1589H112.352L110.652 44.7768H117.028L115.813 50.743H109.437L105.49 70.2689H111.502L110.287 76.2351H104.822ZM129.471 76.9583C125.747 76.9583 122.772 75.8334 120.545 73.5834C118.318 71.3334 117.205 68.0993 117.205 63.8808C117.205 61.1086 117.61 58.5172 118.419 56.1066C119.229 53.696 120.363 51.6069 121.82 49.8391C123.277 48.0311 124.998 46.6248 126.982 45.6205C128.966 44.5758 131.152 44.0536 133.54 44.0536C137.265 44.0536 140.24 45.1785 142.467 47.4285C144.694 49.6785 145.807 52.9126 145.807 57.1311C145.807 59.9033 145.402 62.4947 144.592 64.9053C143.783 67.3159 142.649 69.4252 141.191 71.2331C139.734 73.001 137.993 74.407 135.969 75.4516C133.985 76.456 131.82 76.9583 129.471 76.9583ZM129.897 70.9318C131.718 70.9318 133.257 70.2689 134.512 68.943C135.807 67.6172 136.698 65.6887 137.184 63.1576L138.277 57.9146C138.358 57.5129 138.418 57.1712 138.459 56.8901C138.5 56.5685 138.52 56.1871 138.52 55.745C138.52 54.0576 138.054 52.6917 137.123 51.647C136.232 50.6023 134.896 50.0801 133.115 50.0801C131.293 50.0801 129.735 50.743 128.439 52.0689C127.184 53.3947 126.314 55.3232 125.828 57.8543L124.735 63.1576C124.654 63.4791 124.593 63.8003 124.553 64.1218C124.512 64.4434 124.492 64.8248 124.492 65.2669C124.492 66.9543 124.937 68.3202 125.828 69.3649C126.759 70.4096 128.115 70.9318 129.897 70.9318ZM222.613 76.2351C221.156 76.2351 219.962 75.8533 219.03 75.0901C218.1 74.3268 217.634 73.2619 217.634 71.896C217.634 71.5745 217.654 71.2331 217.695 70.8715C217.776 70.5099 217.836 70.2288 217.877 70.0278L218.059 69.0636H217.755C216.46 71.6348 215.023 73.6036 213.444 74.9695C211.865 76.2954 209.861 76.9583 207.432 76.9583C205.975 76.9583 204.679 76.697 203.546 76.1748C202.452 75.6123 201.542 74.8288 200.813 73.8245C200.084 72.8202 199.538 71.6348 199.173 70.2689C198.809 68.903 198.627 67.3762 198.627 65.6887C198.627 62.6354 198.991 59.803 199.72 57.1914C200.449 54.5397 201.461 52.2497 202.756 50.3212C204.092 48.3526 205.671 46.8258 207.493 45.7411C209.355 44.6162 211.379 44.0536 213.565 44.0536C215.711 44.0536 217.512 44.6162 218.97 45.7411C220.427 46.8659 221.298 48.3324 221.581 50.1404H221.885L222.978 44.7768H230.325L225.164 70.2689H228.989L227.836 76.2351H222.613ZM210.772 70.8715C211.946 70.8715 212.999 70.5904 213.93 70.0278C214.901 69.4252 215.731 68.7222 216.419 67.9185C217.229 67.0347 217.897 66.0301 218.423 64.9053C218.95 63.7401 219.354 62.5149 219.638 61.2291L220.731 55.8656C221.055 54.2586 220.69 52.9126 219.638 51.8278C218.626 50.703 217.148 50.1404 215.205 50.1404C211.035 50.1404 208.424 52.7318 207.371 57.9146L206.521 62.2536C206.44 62.6957 206.359 63.2381 206.278 63.8808C206.197 64.5235 206.157 65.0861 206.157 65.5682C206.157 67.1752 206.541 68.4609 207.31 69.4252C208.12 70.3894 209.274 70.8715 210.772 70.8715ZM242.403 76.2351C238.031 76.2351 235.845 74.4473 235.845 70.8715C235.845 70.55 235.865 70.1884 235.905 69.7868C235.946 69.3447 236.007 68.903 236.088 68.4609L239.67 50.743H235.116L236.27 44.7768H238.517C239.772 44.7768 240.602 44.5358 241.006 44.0536C241.452 43.5314 241.776 42.7278 241.978 41.643L243.071 36.1589H249.933L248.233 44.7768H254.609L253.394 50.743H247.018L243.071 70.2689H249.083L247.868 76.2351H242.403ZM267.72 76.9583C263.429 76.9583 260.19 75.7732 258.004 73.4026C255.859 71.0321 254.786 67.7377 254.786 63.5192C254.786 60.9881 255.191 58.5573 256 56.2271C256.81 53.8566 257.944 51.7675 259.401 49.9596C260.899 48.1517 262.68 46.7255 264.745 45.6808C266.85 44.596 269.198 44.0536 271.789 44.0536C273.044 44.0536 274.319 44.2142 275.615 44.5358C276.91 44.8169 278.084 45.299 279.137 45.9821C280.189 46.6248 281.06 47.5089 281.748 48.6338C282.436 49.7586 282.78 51.1248 282.78 52.7318C282.78 56.0262 281.141 58.5977 277.862 60.4457C274.623 62.2937 269.421 63.2983 262.255 63.4589C262.134 64.2626 262.073 64.845 262.073 65.2066C262.073 66.9341 262.559 68.3202 263.53 69.3649C264.502 70.4096 266.081 70.9318 268.267 70.9318C269.846 70.9318 271.283 70.5904 272.578 69.9073C273.874 69.2242 275.21 68.0391 276.586 66.3516L281.141 70.0881C279.157 72.6192 277.072 74.407 274.886 75.4516C272.741 76.456 270.352 76.9583 267.72 76.9583ZM271.303 49.7185C269.279 49.7185 267.559 50.3815 266.142 51.7073C264.725 53.0331 263.794 54.8411 263.348 57.1311L263.045 58.6377C265.636 58.5172 267.741 58.3162 269.36 58.0351C271.02 57.7136 272.295 57.3321 273.186 56.8901C274.117 56.448 274.745 55.9258 275.068 55.3232C275.392 54.7205 275.554 54.0374 275.554 53.2742C275.554 52.551 275.413 51.9685 275.129 51.5265C274.886 51.0444 274.562 50.6828 274.157 50.4417C273.753 50.1606 273.287 49.9798 272.761 49.8993C272.275 49.7788 271.789 49.7185 271.303 49.7185Z" fill="white"/>
<path d="M187.095 46.2231H186.731L181.205 53.9973L170.699 68.4006L165.72 53.3947L163.412 46.1629H163.109L157.036 76.2351H149.688L158.19 34.1702H166.57L173.007 55.0218H173.25L187.945 34.1702H196.872L188.371 76.2351H181.023L187.095 46.2231Z" fill="#0095D4"/>
</g>
<defs>
<clipPath id="clip0_21_1098">
<rect width="293" height="91" fill="white"/>
</clipPath>
</defs>
</svg>
