<svg width="25" height="24" viewBox="0 0 25 24" fill="none" xmlns="http://www.w3.org/2000/svg">
<g clip-path="url(#clip0_38_1657)">
<path d="M24.5 16.125C24.5 18.4031 23.2351 20.25 20.75 20.25H4.25C1.76488 20.25 0.5 18.4031 0.5 16.125V7.875C0.5 5.59688 1.76488 3.75 4.25 3.75H20.75C23.2351 3.75 24.5 5.59688 24.5 7.875V16.125Z" fill="#137A08"/>
<path fill-rule="evenodd" clip-rule="evenodd" d="M11.9713 11.745C11.9446 11.3726 12.0043 11.2792 12.4306 11.0321C12.3095 10.9218 12.1633 10.8963 12.0133 10.8847C11.8336 10.8712 11.6544 10.8652 11.4766 10.8483C11.3851 10.8405 11.3679 10.8045 11.3851 10.7141C11.4331 10.4666 11.5614 10.2948 11.8134 10.2165C12.0586 10.1396 12.2983 10.0443 12.5473 9.95395C12.5388 9.9327 12.5296 9.91133 12.5199 9.88983C12.4918 9.8368 12.4764 9.77802 12.4748 9.71805C12.4732 9.65808 12.4854 9.59855 12.5105 9.54408C12.5304 9.50133 12.5525 9.45858 12.5773 9.4192C12.731 9.17358 12.8803 9.1282 13.1416 9.2512C13.2241 9.2902 13.3044 9.33708 13.376 9.39295C13.5838 9.55458 13.6025 9.78258 13.4169 9.9712C13.3393 10.0481 13.2343 10.101 13.1409 10.1643C13.0873 10.1996 13.001 10.1898 12.9823 10.2768C12.9811 10.2836 12.9496 10.2843 12.9324 10.2873C12.8855 10.29 12.8341 10.2802 12.7921 10.2967C12.5915 10.371 12.3939 10.4512 12.1963 10.5322C12.1655 10.5435 12.1389 10.5641 12.1093 10.5802L12.1145 10.605C12.2915 10.605 12.4708 10.6076 12.6474 10.6038C13.0438 10.5937 13.4409 10.581 13.8373 10.5686C13.9663 10.5656 13.9816 10.5896 13.943 10.713C13.9339 10.7394 13.9254 10.766 13.9175 10.7928C13.8793 10.932 13.7848 10.9942 13.6449 11.0156C13.2204 11.0763 12.8146 11.2113 12.416 11.3696C12.3245 11.4071 12.23 11.4577 12.2255 11.5691C12.2221 11.6782 12.3024 11.7468 12.3901 11.7948C12.479 11.8425 12.5735 11.877 12.6661 11.9133C12.7719 11.9531 12.791 11.9842 12.7636 12.0907C12.7036 12.3135 12.6976 12.3266 12.4584 12.3011C11.9799 12.2493 11.5625 12.0757 11.2805 11.6591C11.2235 11.5743 11.1804 11.4791 11.1238 11.3767C11.1009 11.406 11.0784 11.4326 11.0559 11.4607C10.8759 11.7078 10.6809 11.9418 10.4326 12.1271C10.2538 12.2617 10.0644 12.3671 9.82814 12.3618C9.54952 12.3551 9.37552 12.2133 9.32189 11.9373C9.31489 11.9031 9.30777 11.8698 9.30052 11.8376C9.04027 11.934 8.78452 12.0296 8.52914 12.1203C8.40414 12.1636 8.27789 12.2025 8.15039 12.237C8.10577 12.2493 8.05702 12.2448 8.01014 12.2475C8.00439 12.2365 7.99952 12.225 7.99552 12.213C8.03077 12.1882 8.06452 12.1601 8.10164 12.1387C8.48039 11.9186 8.85539 11.6981 9.23414 11.4795C9.29302 11.4453 9.32002 11.3973 9.33989 11.3343C9.39839 11.1652 9.46364 10.9991 9.52852 10.8318C9.54052 10.8003 9.56264 10.7748 9.59264 10.7261C9.66539 10.8858 9.59602 11.0351 9.63202 11.184C9.65414 11.1723 9.67589 11.1615 9.69239 11.1472C9.83152 11.0325 9.97252 10.9215 10.1049 10.8003C10.2894 10.6305 10.3168 10.4883 10.2178 10.2588C10.1615 10.1321 10.0985 10.0087 10.0351 9.8857C10.0228 9.86078 10.0028 9.84042 9.97814 9.82758C9.90277 9.7837 9.87989 9.7207 9.90802 9.64345C9.94077 9.55845 9.97839 9.47608 10.0209 9.39633C10.0535 9.33595 10.1101 9.32733 10.1536 9.37795C10.2506 9.4892 10.3416 9.60445 10.4266 9.7237C10.4769 9.7942 10.4491 9.84895 10.3734 9.8722C10.4116 10.0245 10.4548 10.173 10.4851 10.3233C10.5433 10.6233 10.451 10.881 10.2504 11.1056C10.0633 11.316 9.85664 11.5031 9.61252 11.6478C9.58252 11.6651 9.55852 11.7157 9.56002 11.7521C9.56077 11.8342 9.59527 11.9178 9.68077 11.9332C9.78052 11.9512 9.89002 11.9602 9.98564 11.9373C10.2144 11.8852 10.3974 11.742 10.5485 11.5713C10.6996 11.3973 10.8268 11.2008 10.9636 11.0148C11.0045 10.9586 11.006 10.9027 10.9858 10.836C10.8594 10.4452 10.7383 10.0511 10.6134 9.6607C10.553 9.47208 10.6153 9.22083 10.7585 9.11133C10.7829 9.15183 10.8065 9.18933 10.8271 9.2302C11.0844 9.75783 11.2381 10.3151 11.3143 10.8963C11.3413 11.1123 11.3821 11.3276 11.5363 11.499C11.6518 11.6283 11.8021 11.7015 11.9713 11.745ZM13.1484 9.79158C13.1491 9.78233 13.1494 9.77333 13.1491 9.76458C13.0404 9.71583 12.9541 9.6172 12.8004 9.6172C12.8116 9.70533 12.8214 9.7822 12.8311 9.8737L13.1484 9.79158ZM16.403 16.7092C16.205 16.7092 16.0295 16.7062 15.8529 16.7111C15.4906 16.719 15.1299 16.7362 14.7658 16.7388C12.7265 16.7542 10.6854 16.7677 8.64502 16.7752C8.27189 16.776 7.89689 16.7505 7.53352 16.647C7.36289 16.5982 7.20314 16.5243 7.07677 16.392C7.04677 16.3605 7.02127 16.3207 6.97852 16.2652H7.14164C9.38414 16.2795 11.6266 16.2978 13.8684 16.308C14.6716 16.3128 15.4734 16.3031 16.2766 16.2978C16.3089 16.2978 16.3663 16.2873 16.3678 16.2765C16.3738 16.2356 16.3753 16.179 16.3509 16.1535C16.2403 16.0308 16.3029 15.9307 16.3891 15.828C16.424 15.7867 16.4608 15.7803 16.4994 15.8257C16.6051 15.9528 16.6366 16.0188 16.5421 16.14C16.5155 16.1745 16.5174 16.2315 16.5031 16.2873C16.5448 16.2907 16.5695 16.2956 16.5928 16.2948C16.9753 16.2881 17.3544 16.2798 17.7361 16.272C17.8086 16.272 17.881 16.2765 17.9533 16.2855C18.1258 16.3053 18.2173 16.3893 18.2548 16.5611C18.287 16.7047 18.287 16.8498 18.2315 16.989C18.1573 17.1772 17.9859 17.2155 17.8333 17.0816C17.8067 17.062 17.7751 17.0504 17.7421 17.0482C17.6446 17.0452 17.5468 17.0482 17.4493 17.049C17.3769 17.0501 17.3049 17.0388 17.252 17.1206C17.2175 17.1735 17.1545 17.1513 17.1001 17.1168C17.061 17.0905 17.0161 17.0738 16.9693 17.0681C16.8909 17.0613 16.8114 17.0718 16.7334 17.0666C16.6415 17.0621 16.5673 17.0775 16.526 17.1731C16.5028 17.2245 16.4608 17.2226 16.4191 17.1832C16.3063 17.0816 16.2969 16.9991 16.3723 16.8645C16.3944 16.8243 16.3914 16.7715 16.403 16.7092ZM17.7433 16.9155L17.7661 16.6736C17.7474 16.6717 17.732 16.6657 17.7178 16.6657C17.3503 16.6751 16.9831 16.683 16.6149 16.6938C16.529 16.6965 16.4964 16.7561 16.5388 16.8337C16.5759 16.8997 16.6201 16.9537 16.7165 16.9365C16.8024 16.9226 16.892 16.9335 16.979 16.9252C17.0193 16.9208 17.0571 16.9034 17.0866 16.8757C17.1459 16.8195 17.2018 16.821 17.2625 16.8663C17.2873 16.8862 17.3131 16.9121 17.3386 16.9132C17.4725 16.9192 17.6079 16.9155 17.7433 16.9155Z" fill="white"/>
<path fill-rule="evenodd" clip-rule="evenodd" d="M7.67719 10.3433C7.57594 10.3733 7.47506 10.4033 7.37419 10.4367C7.27031 10.4689 7.17356 10.4446 7.08319 10.3981C7.05394 10.3849 7.02131 10.3512 7.01719 10.3246C6.98269 10.0718 6.96844 9.82243 7.15256 9.60793C7.28081 9.4568 7.40981 9.43093 7.55569 9.56481C7.66744 9.66531 7.75894 9.78756 7.86769 9.90943C7.90219 9.88956 7.95656 9.86443 8.00419 9.83031C8.01482 9.82077 8.0234 9.80917 8.02939 9.79621C8.03539 9.78325 8.03868 9.76921 8.03906 9.75493C8.01206 9.43618 7.98169 9.11518 7.95094 8.79568C7.91619 8.43643 7.88069 8.07681 7.84444 7.71681C7.84237 7.69204 7.83785 7.66755 7.83094 7.64368C7.78406 7.50005 7.86544 7.3148 8.00981 7.25668C8.02781 7.2488 8.07581 7.27018 8.08594 7.29006C8.12044 7.36093 8.14406 7.4363 8.17106 7.51018C8.22106 7.64593 8.27044 7.7818 8.31919 7.9178C8.33307 7.95258 8.34166 7.98923 8.34469 8.02655C8.35519 8.15668 8.30381 8.19756 8.17931 8.16381C8.21231 8.6543 8.24756 9.14368 8.28394 9.65181C8.34019 9.60606 8.37956 9.56705 8.42419 9.5363C8.45381 9.51605 8.49019 9.50668 8.52356 9.49205C8.53819 9.5288 8.56106 9.56293 8.56444 9.5993C8.57344 9.66268 8.55694 9.73018 8.57606 9.78755C8.59706 9.84755 8.63494 9.92668 8.68481 9.9458C8.73356 9.96418 8.83219 9.93568 8.86519 9.8933C8.94656 9.79318 9.00469 9.67393 9.06881 9.55993C9.08494 9.53105 9.09506 9.49956 9.10781 9.46956H9.13706C9.14944 9.53218 9.15731 9.59855 9.17681 9.6593C9.20006 9.7298 9.22294 9.80668 9.26569 9.86256C9.33919 9.95818 9.44156 9.9353 9.46706 9.82168C9.48244 9.75043 9.47569 9.67168 9.46444 9.60043C9.44981 9.52018 9.48169 9.44256 9.56006 9.42793C9.58181 9.42456 9.62569 9.45118 9.63206 9.47218C9.68494 9.66943 9.68081 9.8678 9.59869 10.0549C9.53269 10.2019 9.27131 10.2113 9.13744 10.0804C9.11306 10.0568 9.09094 10.0276 9.05944 9.99343C8.95744 10.0984 8.85206 10.1933 8.69756 10.2076C8.54381 10.2214 8.41931 10.1809 8.33456 10.0272C8.32406 10.0594 8.31356 10.0756 8.31356 10.0921C8.31994 10.2563 8.32856 10.4198 8.33456 10.5833C8.34619 10.8773 8.32969 11.1676 8.21044 11.4439C8.11376 11.6692 7.94 11.8527 7.72031 11.9614C7.36069 12.1444 6.98119 12.2633 6.57319 12.2652C6.50194 12.2652 6.42806 12.2528 6.35869 12.2386C6.08719 12.1823 5.95106 11.9963 5.88394 11.7436C5.77856 11.3487 5.80331 10.9602 5.93569 10.5751C5.94694 10.5424 5.96831 10.5121 5.98444 10.4813C5.99364 10.4845 6.00322 10.4865 6.01294 10.4873C6.01294 10.5912 6.02456 10.6966 6.01181 10.7971C5.97844 11.0431 5.98856 11.2808 6.07519 11.5129C6.15431 11.7282 6.31556 11.8489 6.54469 11.8624C6.99056 11.8879 7.37156 11.7181 7.72594 11.4642C7.97119 11.2883 8.06869 11.0468 8.06869 10.7562C8.06756 10.5672 8.06869 10.3774 8.06869 10.1757C7.99781 10.2061 7.91569 10.2083 7.92731 10.3092C7.98731 10.8634 7.67381 11.1837 7.22944 11.4177C7.10944 11.4818 6.97706 11.5354 6.84356 11.5621C6.50194 11.6307 6.19519 11.3997 6.14269 11.0543C6.10556 10.8072 6.14681 10.5664 6.20756 10.3276C6.21806 10.2893 6.24769 10.2563 6.26794 10.2196C6.27584 10.2233 6.28414 10.226 6.29269 10.2278C6.29269 10.2758 6.29719 10.3234 6.29269 10.3703C6.27469 10.5604 6.27356 10.7491 6.35344 10.9272C6.45956 11.1676 6.63169 11.2441 6.88069 11.1619C7.19006 11.0599 7.42856 10.8571 7.62919 10.6096C7.68094 10.5447 7.68469 10.4449 7.71056 10.3606C7.70119 10.3542 7.68844 10.3486 7.67719 10.3433ZM7.56469 10.0336C7.51969 9.97881 7.49456 9.93043 7.45594 9.90456C7.41281 9.87531 7.35544 9.86555 7.30594 9.84755C7.29356 9.8993 7.26694 9.9533 7.27519 10.0024C7.27856 10.0328 7.33331 10.0752 7.36669 10.0778C7.42631 10.0797 7.48594 10.0531 7.56469 10.0336ZM18.3201 9.22618C18.3302 9.43956 18.3426 9.65181 18.3523 9.86556C18.3696 10.2214 18.3962 10.5762 18.3951 10.9313C18.3928 11.0757 18.3573 11.2177 18.2912 11.3461C18.1296 11.6599 17.8453 11.7008 17.5412 11.5118C17.4474 11.4544 17.3758 11.3592 17.3038 11.2718C17.2622 11.2238 17.2314 11.2111 17.1943 11.2617C17.1398 11.3342 17.0897 11.41 17.0443 11.4886C16.9281 11.6978 16.8178 11.9104 16.7027 12.1201C16.6792 12.1645 16.6471 12.2038 16.6082 12.2356C16.5737 12.2611 16.5204 12.2824 16.4807 12.2772C16.2808 12.2449 15.9939 11.9202 15.9969 11.7158C15.9981 11.5414 16.0206 11.3656 16.0468 11.1919C16.0629 11.0791 16.0993 10.9703 16.1271 10.8593L16.1672 10.8619C16.1747 10.9167 16.1897 10.9714 16.1897 11.0266C16.1871 11.2658 16.2051 11.4972 16.3026 11.7192C16.3149 11.7447 16.3258 11.7717 16.3412 11.7953C16.4143 11.9108 16.5081 11.9149 16.5857 11.8013C16.6269 11.7391 16.6577 11.6697 16.6952 11.6037C16.8328 11.3603 16.9656 11.1124 17.1103 10.8743C17.2033 10.7194 17.2944 10.7194 17.4167 10.8571C17.4962 10.9486 17.5667 11.0524 17.6548 11.1346C17.7876 11.2576 17.9747 11.2122 18.0369 11.0423C18.0711 10.9429 18.0958 10.8331 18.0917 10.7288C18.0741 10.2241 18.0474 9.71668 18.0216 9.21193C18.0148 9.10168 17.9983 8.99068 17.9994 8.88118C18.0026 8.78373 17.9684 8.68876 17.9038 8.61568C17.7178 8.3858 17.5389 8.14955 17.3529 7.91968C17.2581 7.80418 17.1992 7.6868 17.2209 7.53305C17.2326 7.4618 17.2191 7.3868 17.2247 7.31518C17.2277 7.28405 17.2408 7.23831 17.2629 7.22743C17.2854 7.21731 17.3331 7.23343 17.3537 7.25368C17.4987 7.38918 17.6407 7.52743 17.7797 7.66843C17.8397 7.72843 17.8284 7.76518 17.7399 7.82218C17.7947 7.90356 17.8506 7.98381 17.9042 8.06331L17.9331 8.05806C17.9158 7.92718 17.9196 7.7888 17.8768 7.66955C17.8097 7.48618 17.8794 7.35043 17.9799 7.21693C18.0324 7.14681 18.0741 7.19293 18.0962 7.24918C18.1524 7.3928 18.2053 7.53568 18.2567 7.68193C18.2886 7.77081 18.3141 7.86305 18.3467 7.96918C18.2938 7.9658 18.2661 7.96243 18.2406 7.96018C18.2398 7.96693 18.2357 7.97143 18.2357 7.97743C18.2473 8.16606 18.2578 8.35618 18.2713 8.54368C18.2732 8.56506 18.2751 8.58868 18.2874 8.60593C18.4164 8.7893 18.5499 8.97268 18.6969 9.14893C18.6763 9.01243 18.6508 8.87406 18.6369 8.73643C18.5972 8.36406 18.5732 7.9898 18.5211 7.61968C18.4993 7.46143 18.5327 7.33618 18.6242 7.21693C18.6958 7.12431 18.7554 7.12618 18.7903 7.23643C18.8619 7.46331 18.9246 7.69468 18.9834 7.92681C19.0052 8.01081 18.9681 8.04305 18.8724 8.0468C18.8932 8.3458 18.9152 8.64368 18.9384 8.94043C18.9538 9.13018 18.9681 9.31918 18.9898 9.50593C18.9969 9.55843 19.0142 9.61618 19.0438 9.66155C19.2216 9.9323 19.4068 10.1997 19.5831 10.4704C19.6989 10.6489 19.7601 10.8451 19.7447 11.0603C19.7428 11.0899 19.7368 11.1184 19.7312 11.1769C19.4983 10.8353 19.2823 10.5199 19.0671 10.2031C19.0416 10.5417 19.1248 10.8803 18.9609 11.1923C18.9508 11.1923 18.9388 11.1923 18.9287 11.1931C18.9227 11.1466 18.9092 11.1008 18.9114 11.0528C18.9264 10.6816 18.8979 10.3111 18.8304 9.94618C18.8252 9.92143 18.8218 9.89368 18.8068 9.87493C18.6542 9.65593 18.4986 9.43955 18.3437 9.22168C18.3357 9.22293 18.3276 9.22443 18.3201 9.22618Z" fill="white"/>
<path fill-rule="evenodd" clip-rule="evenodd" d="M6.76764 7.4993C6.93414 7.62642 7.01027 7.7768 6.99152 7.96055C6.96677 8.18967 7.02039 8.40455 7.08002 8.6198C7.12389 8.77505 7.21764 8.83917 7.36877 8.84367C7.49289 8.84555 7.54239 8.79605 7.51614 8.67605C7.47002 8.47467 7.41377 8.27517 7.36164 8.07567C7.35147 8.03553 7.33622 7.99684 7.31627 7.96055C7.23339 7.80942 7.27652 7.68755 7.39389 7.57617C7.44377 7.52817 7.48727 7.52217 7.52889 7.5728C7.59302 7.65042 7.66052 7.7273 7.70964 7.81467C7.77152 7.91967 7.75239 7.96542 7.64252 8.02767C7.67814 8.1818 7.72764 8.33592 7.74452 8.49342C7.76177 8.63667 7.76477 8.78967 7.73627 8.93067C7.69352 9.13692 7.40814 9.29105 7.20827 9.24305C7.09089 9.21342 7.02039 9.13505 6.97539 9.02817C6.95627 8.9828 6.94089 8.9348 6.91802 8.87255C6.89139 8.90892 6.87039 8.93067 6.85389 8.9558C6.82052 9.00455 6.79952 9.06755 6.75564 9.10355C6.64277 9.19467 6.66002 9.30867 6.66977 9.4283C6.69339 9.7553 6.71739 10.0815 6.73089 10.4085C6.73652 10.5409 6.70314 10.668 6.58764 10.7689C6.56589 10.5364 6.54489 10.3054 6.52052 10.0733C6.49614 9.83892 6.46839 9.60417 6.44064 9.36455C6.42677 9.36155 6.41402 9.35555 6.39864 9.35442C6.14852 9.3293 5.99964 9.20105 5.93327 8.95655C5.88002 8.76117 5.88789 8.56355 5.90777 8.36705C5.91564 8.28455 5.91864 8.2028 5.92502 8.11955C5.90964 8.1173 5.89689 8.11355 5.88227 8.11167C5.84552 8.24442 5.80689 8.37717 5.77464 8.51142C5.72664 8.7008 5.68877 8.89092 5.64077 9.07917C5.62586 9.12364 5.60185 9.1645 5.57027 9.19917C5.47464 9.32255 5.35652 9.3203 5.28564 9.18267C5.22258 9.05985 5.17329 8.93044 5.13864 8.7968C5.0557 8.51123 5.05039 8.20872 5.12327 7.92042C5.13152 7.88442 5.15214 7.84992 5.16602 7.81467C5.17464 7.81542 5.18439 7.81767 5.19452 7.81767C5.19827 7.85817 5.20314 7.90092 5.20727 7.9418C5.23164 8.17167 5.25002 8.4038 5.28602 8.63405C5.29764 8.7143 5.34152 8.7938 5.38689 8.86317C5.43377 8.9378 5.49977 8.93217 5.52639 8.8508C5.56614 8.7218 5.59764 8.58942 5.61414 8.45705C5.64114 8.2118 5.70639 7.98192 5.84102 7.77455C5.87927 7.7183 5.92614 7.6628 5.98127 7.62605C6.07614 7.5638 6.17514 7.61442 6.17139 7.72617C6.16684 7.84186 6.15012 7.95674 6.12152 8.06892C6.05889 8.3033 6.06489 8.5298 6.17514 8.74805C6.23064 8.85117 6.28802 8.88792 6.40652 8.8973C6.39939 8.79642 6.39789 8.69667 6.38514 8.59805C6.35177 8.3093 6.31502 8.01905 6.27639 7.7303C6.2642 7.64796 6.24653 7.56653 6.22352 7.48655C6.20552 7.40967 6.26364 7.2443 6.33377 7.21167C6.35439 7.20155 6.40689 7.21692 6.41739 7.23605C6.48902 7.37442 6.56027 7.51467 6.61802 7.6598C6.6315 7.69233 6.63369 7.72843 6.62424 7.76235C6.61479 7.79627 6.59425 7.82605 6.56589 7.84692C6.54939 7.85892 6.53964 7.88855 6.54077 7.91105C6.56852 8.21742 6.59927 8.52492 6.62852 8.83017C6.62927 8.83617 6.63527 8.83992 6.63977 8.84442C6.76502 8.76417 6.83739 8.59767 6.81114 8.4593C6.77327 8.27105 6.73352 8.0843 6.70089 7.89455C6.67727 7.76405 6.71139 7.64105 6.76764 7.4993ZM10.0808 7.57167C10.0778 7.60242 10.0763 7.63167 10.0706 7.66017C10.029 7.88517 10.0204 8.11205 10.068 8.33667C10.0883 8.4308 10.1359 8.52455 10.1865 8.60892C10.2098 8.64717 10.2705 8.68617 10.3121 8.68392C10.3459 8.68205 10.3909 8.6258 10.4081 8.5838C10.5045 8.37005 10.5881 8.14917 10.6905 7.93617C10.7539 7.80342 10.8341 7.67667 10.9185 7.55667C10.9493 7.5143 11.0276 7.45842 11.0621 7.47192C11.1375 7.49855 11.1705 7.5788 11.1596 7.6673C11.1465 7.76667 11.1229 7.86605 11.1188 7.96542C11.1109 8.1698 11.1004 8.37492 11.1109 8.57892C11.121 8.7983 11.2868 8.89092 11.4919 8.8028C11.8028 8.67005 11.8815 8.4758 11.8605 8.16305C11.8451 7.92455 11.7859 7.68605 11.742 7.44905C11.7158 7.29455 11.8144 7.19405 11.8834 7.06055C11.9963 7.19217 12.0278 7.33392 12.0469 7.47455C12.0806 7.7078 12.0938 7.94367 12.1294 8.17767C12.1549 8.34942 12.2134 8.5133 12.3289 8.65017C12.3795 8.71055 12.4384 8.7593 12.5239 8.73155C12.612 8.70492 12.6394 8.6303 12.6469 8.54742C12.666 8.33442 12.6214 8.12817 12.5584 7.9268C12.5189 7.80094 12.4762 7.67615 12.4301 7.55255C12.4046 7.48542 12.411 7.4333 12.4598 7.3808C12.4961 7.3418 12.5179 7.2908 12.5456 7.24542C12.5944 7.15992 12.6251 7.15242 12.7005 7.21055C12.8479 7.32642 12.936 7.48092 12.984 7.65755C12.9919 7.6868 12.9728 7.72617 12.9656 7.75917C12.9334 7.7528 12.9 7.75017 12.8711 7.73742C12.8426 7.7258 12.8186 7.70405 12.7759 7.67517C12.8119 7.81467 12.8445 7.93242 12.8711 8.05392C12.9116 8.2478 12.9401 8.44467 12.8828 8.64117C12.8741 8.67455 12.8666 8.7083 12.855 8.74167C12.7271 9.08442 12.4508 9.15417 12.1751 8.91342C12.1163 8.86167 12.0555 8.81292 12.0049 8.77092C11.9081 8.86167 11.7971 8.9708 11.6798 9.07092C11.637 9.10955 11.5781 9.13205 11.5223 9.15417C11.2703 9.25467 11.0475 9.15642 10.9504 8.90442C10.8701 8.70155 10.8844 8.48967 10.8979 8.27855C10.9005 8.23055 10.8979 8.18105 10.8979 8.1323L10.8664 8.12442C10.8443 8.16867 10.8184 8.21217 10.8015 8.2598C10.7306 8.44805 10.6676 8.6393 10.5949 8.82717C10.491 9.09792 10.3324 9.11742 10.1498 8.89242C9.83177 8.49567 9.84602 8.06555 10.0196 7.62005C10.0275 7.6013 10.0429 7.58367 10.0541 7.56642C10.0625 7.57029 10.0716 7.57258 10.0808 7.57317M13.9523 8.26167C13.9346 8.08392 13.9455 7.89492 13.8885 7.73217C13.8656 7.67113 13.8554 7.60606 13.8585 7.54094C13.8616 7.47583 13.878 7.41202 13.9065 7.35342C13.9253 7.3163 13.9669 7.26755 14.0003 7.2653C14.0336 7.26305 14.0861 7.3058 14.1015 7.34142C14.1964 7.56792 14.2879 7.79405 14.3685 8.02617C14.4086 8.14355 14.3711 8.18442 14.2523 8.17467C14.2616 8.3858 14.2695 8.5958 14.2841 8.80505C14.2849 8.83355 14.3104 8.8613 14.3258 8.88942C14.5973 9.34955 14.8759 9.8063 15.1376 10.272C15.2678 10.5012 15.3686 10.7479 15.4061 11.0142C15.414 11.0674 15.4125 11.1237 15.4144 11.1788C15.4045 11.1844 15.3944 11.1895 15.384 11.1942C15.3608 11.1634 15.3323 11.1353 15.3169 11.1008C15.0675 10.5105 14.7251 9.97205 14.3843 9.43055C14.367 9.40505 14.3494 9.38105 14.316 9.33417C14.3333 9.54342 14.3494 9.72755 14.364 9.9098C14.3974 10.3137 14.4765 10.7157 14.4281 11.1222C14.4041 11.3145 14.3449 11.5017 14.295 11.6888C14.2849 11.7338 14.2496 11.7728 14.2245 11.8133C14.211 11.8099 14.196 11.808 14.1836 11.805C14.1836 11.7567 14.1743 11.706 14.1855 11.6592C14.2789 11.2965 14.2455 10.9287 14.2035 10.563C14.1491 10.0785 14.0824 9.59592 14.0284 9.1118C14.007 8.9243 13.965 8.75367 13.8416 8.6018C13.6605 8.37455 13.5019 8.13305 13.3271 7.90092C13.2754 7.83305 13.2023 7.7813 13.1464 7.71642C13.1141 7.68117 13.0815 7.6343 13.0759 7.5908C13.0643 7.47481 13.0604 7.35818 13.0643 7.24167C13.0643 7.20905 13.083 7.1618 13.1066 7.1483C13.1314 7.13705 13.1828 7.14905 13.2068 7.17042C13.3918 7.33692 13.5731 7.50692 13.7509 7.68042C13.7816 7.70967 13.7858 7.76705 13.8023 7.81317C13.7531 7.8233 13.7055 7.8353 13.6493 7.84805C13.7408 7.98192 13.8364 8.12555 13.935 8.2688C13.94 8.26555 13.9458 8.2628 13.9523 8.26055M19.956 7.92417C19.9751 8.16005 19.9946 8.40417 20.0153 8.6468C20.0561 9.12755 20.0996 9.60605 20.1413 10.086C20.1751 10.4214 20.1618 10.7598 20.1015 11.0914C20.0145 11.55 19.8169 11.9348 19.3568 12.1212C19.2221 12.1759 19.0751 12.2044 18.9319 12.2412C18.8925 12.2498 18.8486 12.2419 18.8066 12.2419C18.8029 12.2307 18.7973 12.2213 18.7939 12.2104C18.8355 12.1714 18.8734 12.129 18.9176 12.0949C19.068 11.9794 19.224 11.8744 19.371 11.7559C19.7231 11.4687 19.8896 11.0922 19.8656 10.6444C19.8403 10.1826 19.8047 9.72132 19.7588 9.26105C19.7138 8.7923 19.6568 8.3243 19.602 7.8563C19.5878 7.73442 19.5675 7.61367 19.5495 7.49255C19.5349 7.4048 19.6451 7.18205 19.7254 7.15692C19.7445 7.15167 19.7914 7.17605 19.8015 7.19892C19.899 7.4033 19.9913 7.6088 20.0824 7.81617C20.0936 7.84805 20.0861 7.88667 20.088 7.92417H19.956Z" fill="white"/>
<path fill-rule="evenodd" clip-rule="evenodd" d="M14.3361 12.3178C14.3867 12.2926 14.4351 12.2581 14.4872 12.2439C14.8363 12.1486 15.0816 11.9139 15.3182 11.6604C15.5342 11.4294 15.5942 11.156 15.5702 10.8496C15.5421 10.4709 15.5305 10.0895 15.499 9.71077C15.46 9.23977 15.4075 8.77214 15.3576 8.30302C15.3401 8.13759 15.3182 7.97265 15.292 7.80839C15.2854 7.75861 15.2738 7.70961 15.2575 7.66214C15.2297 7.56989 15.2421 7.49039 15.3122 7.41989C15.379 7.35802 15.4405 7.29202 15.5147 7.21552C15.5402 7.25714 15.5698 7.28789 15.5811 7.32239C15.64 7.52002 15.6985 7.71989 15.7513 7.92014C15.7795 8.02402 15.754 8.04464 15.631 8.02101C15.631 8.12264 15.6238 8.22239 15.6317 8.32064C15.688 9.12614 15.8113 9.92752 15.8016 10.7383C15.7975 11.0413 15.7937 11.345 15.6542 11.6236C15.5282 11.8745 15.3385 12.077 15.1138 12.245C15.0533 12.2894 14.9834 12.3191 14.9095 12.332C14.7572 12.3556 14.6035 12.3646 14.4501 12.3755C14.4148 12.3774 14.3785 12.3613 14.3428 12.3545C14.3412 12.3422 14.339 12.3299 14.3361 12.3178ZM16.3348 8.10014C16.3525 8.28877 16.3656 8.46052 16.3858 8.63339C16.4383 9.10189 16.4931 9.56989 16.5501 10.0374C16.5775 10.2643 16.6183 10.4908 16.6498 10.7176C16.6888 11.0056 16.6303 11.2753 16.4968 11.5284C16.4732 11.5734 16.429 11.606 16.3941 11.6439C16.3832 11.642 16.3727 11.6383 16.3626 11.6368C16.3532 11.5963 16.3318 11.5531 16.3405 11.519C16.4215 11.1856 16.3675 10.856 16.3232 10.5253C16.2598 10.0715 16.2077 9.61514 16.1436 9.16176C16.0761 8.69189 16.0078 8.22202 15.9295 7.75401C15.8961 7.55001 15.9317 7.37526 16.0592 7.21514C16.1301 7.12626 16.1908 7.13114 16.2343 7.23352C16.2763 7.33289 16.303 7.43451 16.3442 7.53389C16.4016 7.67376 16.4695 7.80802 16.5265 7.94789C16.5478 7.99964 16.5497 8.05889 16.5598 8.11289C16.5066 8.11552 16.4522 8.11889 16.3982 8.11889C16.3832 8.11851 16.3693 8.11102 16.3348 8.10014ZM8.59222 8.56364C8.63197 8.53027 8.67322 8.49352 8.71409 8.46052C8.88884 8.31727 9.06622 8.17702 9.23834 8.02927C9.30509 7.97077 9.35647 7.89352 9.41534 7.82789C9.27472 7.61827 9.28897 7.39401 9.44684 7.25939C9.51472 7.20164 9.58972 7.16902 9.68047 7.21027C9.76709 7.25264 9.79222 7.32952 9.78247 7.41614C9.77422 7.49639 9.74909 7.57589 9.73484 7.65352C9.72472 7.70977 9.72772 7.76864 9.71272 7.82264C9.69838 7.85972 9.67582 7.89306 9.64672 7.92014C9.61297 7.95352 9.56159 7.97302 9.53309 8.00902C9.31409 8.28689 9.02422 8.46164 8.69834 8.58464C8.67172 8.59439 8.64022 8.59327 8.61022 8.59702C8.60472 8.58627 8.59872 8.57514 8.59222 8.56364ZM9.58784 7.44239C9.57172 7.43977 9.55559 7.43452 9.54022 7.43227C9.53009 7.48477 9.51809 7.53801 9.50872 7.59014L9.54772 7.59727C9.56234 7.54477 9.57359 7.49414 9.58784 7.44239ZM5.44072 10.865C5.47334 10.9978 5.47259 11.1091 5.44484 11.2288C5.41147 11.375 5.39609 11.525 5.37584 11.6731C5.37284 11.6964 5.37584 11.7256 5.38822 11.7455C5.41297 11.7856 5.43809 11.8381 5.47522 11.8543C5.49734 11.8633 5.54684 11.8108 5.57909 11.783C5.59822 11.7661 5.60759 11.7354 5.62897 11.7264C5.64584 11.72 5.68597 11.7279 5.69122 11.7418C5.74184 11.8528 5.64809 12.0916 5.53597 12.1449C5.41634 12.2019 5.28809 12.1528 5.25922 12.0106C5.22847 11.8681 5.20597 11.7125 5.22847 11.5711C5.26447 11.3503 5.33872 11.1358 5.39872 10.9183C5.40359 10.9021 5.42084 10.8905 5.44072 10.865ZM17.275 9.30577L17.0335 8.88127C16.8985 8.94802 16.867 8.92927 16.8737 8.79277C16.876 8.75827 16.8643 8.72114 16.8726 8.69002C16.8831 8.65514 16.9033 8.60752 16.9315 8.59627C16.9585 8.58764 17.0151 8.61052 17.0323 8.63602C17.0863 8.72002 17.128 8.81152 17.1745 8.90077C17.194 8.93789 17.212 8.97877 17.2502 9.01439C17.2502 8.94539 17.2491 8.87902 17.2502 8.80964C17.2528 8.72377 17.2442 8.63302 17.2671 8.55164C17.2825 8.49839 17.3406 8.45339 17.3863 8.41551C17.4013 8.40201 17.4568 8.40876 17.4662 8.42339C17.5011 8.47551 17.533 8.53252 17.5468 8.59177C17.5592 8.64052 17.5337 8.68439 17.4722 8.65214C17.383 8.60714 17.3541 8.65401 17.3515 8.72826C17.3458 8.86776 17.3485 9.00502 17.3428 9.14377C17.3421 9.19439 17.3248 9.24539 17.3143 9.29827C17.3008 9.30152 17.2877 9.30402 17.275 9.30577ZM5.19922 10.3396C5.33197 10.1278 5.50859 9.96464 5.72084 9.84239C5.85547 9.76477 6.00172 9.70664 6.14684 9.64477C6.18959 9.62564 6.24809 9.58364 6.27697 9.66839C6.30659 9.75314 6.28147 9.81652 6.20684 9.84652C6.11347 9.88289 6.01372 9.90652 5.92522 9.95227C5.69947 10.0674 5.47859 10.1911 5.25509 10.3123C5.23684 10.3223 5.21822 10.3314 5.19922 10.3396ZM13.9281 11.9199C13.7736 12.0526 13.6311 12.2056 13.4106 12.2341C13.2666 12.2536 13.1908 12.1636 13.2235 12.0215C13.2351 11.9716 13.2448 11.921 13.2587 11.8599C13.186 11.8711 13.1297 11.8813 13.0671 11.8925C13.0986 11.8145 13.3172 11.6634 13.3843 11.6735C13.4065 11.6765 13.4357 11.7234 13.4346 11.747C13.4327 11.8033 13.4083 11.858 13.4023 11.9135C13.3975 11.9544 13.4072 11.9964 13.4091 12.038C13.4511 12.0346 13.498 12.038 13.5355 12.0253C13.6202 11.9938 13.7012 11.9503 13.7856 11.9161C13.8253 11.8996 13.8703 11.8925 13.9123 11.8809C13.9165 11.894 13.9236 11.9079 13.9281 11.9199ZM18.1273 11.7035C18.1596 11.7073 18.1922 11.7043 18.2211 11.7144C18.2773 11.7298 18.3047 11.7684 18.28 11.8284C18.2695 11.8546 18.2552 11.8794 18.2413 11.9034C18.2098 11.9656 18.1967 12.0125 18.2961 12.0099C18.3186 12.0099 18.3583 12.0279 18.361 12.0451C18.367 12.0706 18.3595 12.113 18.3388 12.1291C18.2395 12.2086 18.1285 12.2679 17.9972 12.2638C17.9706 12.263 17.9286 12.2416 17.9248 12.221C17.917 12.194 17.9297 12.1528 17.9481 12.1291C17.9796 12.0909 18.0253 12.0624 18.0587 12.0264C18.0958 11.9866 18.1007 11.9405 18.0508 11.906C18.001 11.8715 17.929 11.8411 17.9725 11.7714C17.9991 11.7298 18.0662 11.7125 18.1161 11.6836C18.1191 11.69 18.1243 11.6964 18.1273 11.7035ZM11.9293 9.71077C11.9398 9.69914 11.9353 9.70289 11.9312 9.70777C11.902 9.76214 11.8712 9.84127 11.8003 9.81539C11.7704 9.8014 11.7435 9.78155 11.7214 9.75701C11.6992 9.73247 11.6822 9.70374 11.6713 9.67252C11.6477 9.58627 11.6571 9.48989 11.653 9.39839L11.6856 9.39314C11.7231 9.47902 11.7613 9.56639 11.7973 9.65264L11.8375 9.64927C11.8596 9.55777 11.8802 9.46477 11.9023 9.37327L11.9278 9.37064C11.9738 9.44939 12.0197 9.52951 12.0655 9.61101C12.079 9.61026 12.0898 9.60727 12.1018 9.60652L12.1457 9.26939C12.2233 9.36764 12.2361 9.45727 12.2372 9.55214C12.2372 9.62939 12.2181 9.70852 12.1405 9.73064C12.0853 9.74677 12.0163 9.72014 11.9293 9.71077ZM16.9626 10.0933C16.9858 10.055 17.0012 10.0074 17.0342 9.97739C17.1336 9.89114 17.2401 9.81239 17.3417 9.72951C17.4535 9.63651 17.5611 9.54127 17.6747 9.44939C17.6961 9.43214 17.7351 9.41114 17.7535 9.41939C17.7756 9.42952 17.7868 9.47002 17.7925 9.49739C17.8075 9.57652 17.7846 9.63652 17.7122 9.68077C17.4988 9.81352 17.2888 9.95189 17.0758 10.0854C17.0503 10.1008 17.0218 10.1094 16.9922 10.1218C16.9829 10.1117 16.973 10.1022 16.9626 10.0933ZM19.3086 8.41852C19.2992 8.35177 19.2981 8.28389 19.2801 8.21864C19.24 8.06602 19.2025 7.90964 19.141 7.76527C19.1042 7.67452 19.1023 7.60476 19.1571 7.53014C19.2092 7.45964 19.2475 7.45701 19.2778 7.53539C19.3273 7.66439 19.3776 7.79489 19.3945 7.92876C19.4128 8.06076 19.3907 8.19614 19.3821 8.32964C19.3802 8.36114 19.3566 8.39039 19.3438 8.42039C19.3321 8.41921 19.3204 8.41859 19.3086 8.41852ZM14.7861 8.04802C14.7861 7.98577 14.7778 7.93926 14.7883 7.89726C14.8281 7.73489 14.773 7.60814 14.6605 7.49714C14.5742 7.41052 14.5716 7.31527 14.662 7.23689C14.6841 7.21852 14.7441 7.21289 14.7647 7.22977C14.9503 7.37677 14.9893 7.84327 14.8367 8.02402C14.8311 8.03077 14.8213 8.03152 14.7861 8.04802ZM9.61784 8.71102C9.64784 8.85652 9.49859 9.05002 9.33509 9.05902C9.23947 9.06389 9.14459 8.96827 9.14384 8.85277C9.14009 8.66827 9.24509 8.53514 9.37259 8.41814C9.37972 8.41139 9.39584 8.41552 9.43297 8.41139C9.39772 8.48377 9.36697 8.54039 9.34447 8.59664C9.32122 8.65139 9.29647 8.70726 9.28972 8.76464C9.28484 8.79726 9.30584 8.85614 9.33059 8.86664C9.36284 8.87977 9.41722 8.87039 9.44984 8.85051C9.50759 8.81564 9.55559 8.76502 9.61784 8.71102Z" fill="white"/>
<path fill-rule="evenodd" clip-rule="evenodd" d="M15.0006 8.50025C15.0306 8.42187 15.0629 8.3435 15.0963 8.26025C15.1604 8.33712 15.1724 8.5505 15.1221 8.61387C15.082 8.66412 15.0291 8.669 14.9793 8.63C14.923 8.58575 14.8791 8.585 14.821 8.63075C14.752 8.687 14.7044 8.67275 14.6823 8.58912C14.6643 8.52162 14.6669 8.45075 14.6613 8.38287C14.6725 8.37875 14.6853 8.37575 14.6958 8.37237C14.7246 8.42 14.752 8.468 14.7914 8.5355C14.824 8.4515 14.8465 8.38775 14.8803 8.29962C14.9155 8.38325 14.9418 8.43912 14.9669 8.49762C14.9776 8.49812 14.9889 8.499 15.0006 8.50025ZM8.97439 11.1331C8.98977 11.0011 9.00402 10.8837 9.01677 10.7664C8.84239 10.7427 8.80339 10.685 8.86564 10.5579C8.88364 10.5219 8.93427 10.4682 8.96202 10.4739C9.01377 10.4825 9.08014 10.5147 9.10414 10.559C9.17952 10.6944 9.12364 10.997 9.01639 11.111C9.01152 11.1177 8.99989 11.1196 8.97439 11.1331ZM6.94114 7.148C6.95202 7.21925 6.95389 7.26725 6.96814 7.31112C6.97752 7.34375 7.00414 7.37037 7.02139 7.40075C7.04952 7.38275 7.08402 7.37037 7.10352 7.34712C7.13314 7.30437 7.15302 7.25562 7.19802 7.20875C7.20289 7.24737 7.20289 7.28712 7.21527 7.3205C7.23064 7.35575 7.25989 7.38462 7.28202 7.41612C7.30377 7.38912 7.32814 7.36475 7.34802 7.33587C7.35927 7.31975 7.36414 7.29987 7.37539 7.27775C7.43577 7.35912 7.42939 7.45887 7.36264 7.51625C7.27939 7.58712 7.22764 7.52075 7.17739 7.466C7.03977 7.55375 6.98502 7.55712 6.91939 7.48287C6.84364 7.39475 6.84252 7.26725 6.94114 7.148ZM17.6718 10.598C17.6665 10.5504 17.6564 10.5219 17.6616 10.4979C17.7048 10.3542 17.647 10.256 17.5334 10.175C17.4505 10.1172 17.4505 10.0471 17.5349 9.989C17.5615 9.971 17.617 9.96425 17.6436 9.97962C17.815 10.079 17.8638 10.4019 17.7348 10.5489C17.7239 10.562 17.7078 10.5714 17.6718 10.598ZM11.4749 8.0765C11.4749 8.03412 11.473 7.99212 11.4749 7.95012C11.4865 7.76412 11.4513 7.5905 11.3459 7.43187C11.3279 7.406 11.3125 7.36025 11.323 7.33587C11.3419 7.29857 11.3732 7.269 11.4115 7.25225C11.4288 7.247 11.4764 7.289 11.4899 7.31787C11.5713 7.49075 11.5874 7.67412 11.566 7.86012C11.5581 7.9355 11.536 8.009 11.5199 8.08362C11.5049 8.08212 11.4895 8.07837 11.4749 8.0765ZM5.59864 7.74125C5.60652 7.58262 5.68827 7.4525 5.62527 7.31075C5.60164 7.32012 5.58814 7.32912 5.57277 7.33325C5.53714 7.3385 5.49927 7.3415 5.46289 7.34525C5.47114 7.30662 5.46777 7.25825 5.49064 7.2305C5.53714 7.17537 5.58589 7.09587 5.67514 7.13225C5.75614 7.16637 5.75989 7.25075 5.75464 7.32762C5.74714 7.47312 5.68827 7.59762 5.59864 7.74125Z" fill="white"/>
</g>
<defs>
<clipPath id="clip0_38_1657">
<rect width="24" height="24" fill="white" transform="translate(0.5)"/>
</clipPath>
</defs>
</svg>
