<svg width="64" height="64" viewBox="0 0 64 64" fill="none" xmlns="http://www.w3.org/2000/svg">
<g clip-path="url(#clip0_86_2421)">
<path d="M49.8891 11.3755V34.2324H10.1045C8.83884 34.2324 7.67233 34.9155 7.05222 36.019L2.04099 44.9434C1.49167 45.9224 -3.05176e-05 45.5327 -3.05176e-05 44.4106V11.3755C-3.05176e-05 9.44189 1.56686 7.875 3.49948 7.875H46.3896C48.3222 7.875 49.8891 9.44189 49.8891 11.3755Z" fill="#EBDFFB"/>
<path d="M49.8891 11.3755V34.2324H24.9443V7.875H46.3896C48.3222 7.875 49.8891 9.44189 49.8891 11.3755Z" fill="#C099F2"/>
<path d="M64 22.2241V54.9844C64 56.168 62.4262 56.5806 61.8467 55.5483L56.9555 46.8364C56.3369 45.7354 55.1718 45.0522 53.9077 45.0522H17.6679C15.7383 45.0522 14.1728 43.4883 14.1728 41.5571V22.2241C14.1728 20.293 15.7383 18.7275 17.6679 18.7275H60.5044C62.4345 18.7275 64 20.293 64 22.2241Z" fill="#995BD5"/>
<path d="M64 22.2241V54.9844C64 56.168 62.4262 56.5806 61.8467 55.5483L56.9555 46.8364C56.3369 45.7354 55.1718 45.0522 53.9077 45.0522H39.0864V18.7275H60.5049C62.4345 18.7275 64 20.293 64 22.2241Z" fill="#711DB9"/>
<path d="M54.3896 27.3599C54.3896 28.5308 53.4414 29.48 52.271 29.48H25.9018C24.7309 29.48 23.7832 28.5308 23.7832 27.3599C23.7832 26.1909 24.7309 25.2412 25.9018 25.2412H52.271C53.4414 25.2412 54.3896 26.1909 54.3896 27.3599Z" fill="#EBDFFB"/>
<path d="M54.3896 35.7456C54.3896 36.916 53.4414 37.8643 52.271 37.8643H25.9018C24.7309 37.8643 23.7832 36.916 23.7832 35.7456C23.7832 34.5747 24.7309 33.627 25.9018 33.627H52.271C53.4414 33.627 54.3896 34.5747 54.3896 35.7456Z" fill="#EBDFFB"/>
<path d="M54.3896 35.7456C54.3896 36.916 53.4413 37.8643 52.2709 37.8643H39.0864V33.627H52.2709C53.4413 33.627 54.3896 34.5747 54.3896 35.7456Z" fill="#C099F2"/>
<path d="M52.2709 29.481H39.0864V25.2422H52.2709C53.4413 25.2422 54.3896 26.1919 54.3896 27.3608C54.3896 28.5312 53.4413 29.481 52.2709 29.481Z" fill="#C099F2"/>
</g>
<defs>
<clipPath id="clip0_86_2421">
<rect width="64" height="64" fill="white"/>
</clipPath>
</defs>
</svg>
