<svg width="64" height="64" viewBox="0 0 64 64" fill="none" xmlns="http://www.w3.org/2000/svg">
<path d="M22.4 34.1342V29.8676C22.4 28.6836 23.36 27.7129 24.5333 27.7129C25.12 27.7129 25.6533 27.9476 26.0373 28.3422C26.432 28.7369 26.6667 29.2702 26.6667 29.8676V34.1342H22.4Z" fill="#ADBFC4"/>
<path d="M30.9333 37.334V38.4007H18.1333V37.334C18.1333 34.9767 21.0027 33.0674 24.5333 33.0674C28.064 33.0674 30.9333 34.9767 30.9333 37.334Z" fill="#BDCCD1"/>
<path d="M6.76268 57.6003H5.33335C2.97601 57.6003 1.06668 55.691 1.06668 53.3337V46.9337C1.06668 44.5763 2.97601 42.667 5.33335 42.667H6.76268V57.6003Z" fill="#BDCCD1"/>
<path d="M42.3041 42.667H43.7334C46.0907 42.667 48.0001 44.5763 48.0001 46.9337V53.3337C48.0001 55.691 46.0907 57.6003 43.7334 57.6003H42.3041V42.667Z" fill="#BDCCD1"/>
<path d="M58.6667 8.53414C58.6667 10.6035 57.8347 12.4595 56.48 13.8141C55.1253 15.1688 53.2693 16.0008 51.2 16.0008H38.4C37.184 15.9997 36.0427 15.7117 35.0293 15.1997C33.9093 15.6584 32.7147 15.9251 31.4987 15.9997C30.9973 16.0317 30.752 15.4237 31.0933 15.0611C31.6693 14.4424 32.1173 13.7064 32.3627 12.9064C31.456 11.6797 30.9333 10.1757 30.9333 8.53307C30.9333 6.46374 31.7653 4.60774 33.12 3.25307C34.4747 1.89841 36.3307 1.06641 38.4 1.06641H51.2C55.328 1.06747 58.6667 4.40614 58.6667 8.53414Z" fill="#995BD5"/>
<path d="M35.2 27.7332C35.2 29.8025 36.032 31.6585 37.3867 33.0121C38.7413 34.3668 40.5973 35.1988 42.6667 35.1988H55.4667C56.6827 35.1988 57.824 34.9108 58.8373 34.3988C59.9573 34.8574 61.152 35.1241 62.368 35.1988C62.8693 35.2308 63.1147 34.6228 62.7733 34.2601C62.1973 33.6414 61.7493 32.9054 61.504 32.1054C62.4107 30.8788 62.9333 29.3748 62.9333 27.7332C62.9333 25.6638 62.1013 23.8078 60.7467 22.4542C59.392 21.0996 57.536 20.2676 55.4667 20.2676H42.6667C38.5387 20.2676 35.2 23.6062 35.2 27.7332Z" fill="#C099F2"/>
<path d="M33.0667 37.333H16C10.109 37.333 5.33334 42.1086 5.33334 47.9997V52.2663C5.33334 58.1574 10.109 62.933 16 62.933H33.0667C38.9577 62.933 43.7333 58.1574 43.7333 52.2663V47.9997C43.7333 42.1086 38.9577 37.333 33.0667 37.333Z" fill="#D8E1E5"/>
<path d="M32 42.667H17.0667C12.9429 42.667 9.6 46.0099 9.6 50.1337C9.6 54.2574 12.9429 57.6003 17.0667 57.6003H32C36.1237 57.6003 39.4667 54.2574 39.4667 50.1337C39.4667 46.0099 36.1237 42.667 32 42.667Z" fill="#203B51"/>
<path d="M16 52.2667C17.1782 52.2667 18.1333 51.3115 18.1333 50.1333C18.1333 48.9551 17.1782 48 16 48C14.8218 48 13.8667 48.9551 13.8667 50.1333C13.8667 51.3115 14.8218 52.2667 16 52.2667Z" fill="#FF9E02"/>
<path d="M33.0667 52.2667C34.2449 52.2667 35.2 51.3115 35.2 50.1333C35.2 48.9551 34.2449 48 33.0667 48C31.8885 48 30.9333 48.9551 30.9333 50.1333C30.9333 51.3115 31.8885 52.2667 33.0667 52.2667Z" fill="#FF9E02"/>
<path d="M24.5333 54.4004C22.96 54.4004 21.8944 53.4319 21.5125 52.8591C21.185 52.3695 21.3173 51.7071 21.808 51.3796C22.2912 51.0564 22.9461 51.1812 23.2789 51.6623C23.3109 51.7071 23.7397 52.2671 24.5333 52.2671C25.3482 52.2671 25.7749 51.6804 25.7792 51.6751C26.1045 51.1844 26.769 51.0532 27.2586 51.3796C27.7493 51.7071 27.8816 52.3695 27.5541 52.8591C27.1722 53.4319 26.1066 54.4004 24.5333 54.4004Z" fill="#FF9E02"/>
<path d="M39.4667 9.60013H37.3333C36.7435 9.60013 36.2667 9.12333 36.2667 8.53346C36.2667 7.9436 36.7435 7.4668 37.3333 7.4668H39.4667C40.0565 7.4668 40.5333 7.9436 40.5333 8.53346C40.5333 9.12333 40.0565 9.60013 39.4667 9.60013Z" fill="#711DB9"/>
<path d="M45.8667 9.60013H43.7333C43.1435 9.60013 42.6667 9.12333 42.6667 8.53346C42.6667 7.9436 43.1435 7.4668 43.7333 7.4668H45.8667C46.4565 7.4668 46.9333 7.9436 46.9333 8.53346C46.9333 9.12333 46.4565 9.60013 45.8667 9.60013Z" fill="#711DB9"/>
<path d="M52.2667 9.60013H50.1333C49.5435 9.60013 49.0667 9.12333 49.0667 8.53346C49.0667 7.9436 49.5435 7.4668 50.1333 7.4668H52.2667C52.8565 7.4668 53.3333 7.9436 53.3333 8.53346C53.3333 9.12333 52.8565 9.60013 52.2667 9.60013Z" fill="#711DB9"/>
<path d="M43.7333 28.8003H41.6C41.0101 28.8003 40.5333 28.3235 40.5333 27.7337C40.5333 27.1438 41.0101 26.667 41.6 26.667H43.7333C44.3232 26.667 44.8 27.1438 44.8 27.7337C44.8 28.3235 44.3232 28.8003 43.7333 28.8003Z" fill="#FCFAFF"/>
<path d="M50.1333 28.8003H48C47.4101 28.8003 46.9333 28.3235 46.9333 27.7337C46.9333 27.1438 47.4101 26.667 48 26.667H50.1333C50.7232 26.667 51.2 27.1438 51.2 27.7337C51.2 28.3235 50.7232 28.8003 50.1333 28.8003Z" fill="#FCFAFF"/>
<path d="M56.5333 28.8003H54.4C53.8101 28.8003 53.3333 28.3235 53.3333 27.7337C53.3333 27.1438 53.8101 26.667 54.4 26.667H56.5333C57.1232 26.667 57.6 27.1438 57.6 27.7337C57.6 28.3235 57.1232 28.8003 56.5333 28.8003Z" fill="#FCFAFF"/>
</svg>
