<svg width="64" height="64" viewBox="0 0 64 64" fill="none" xmlns="http://www.w3.org/2000/svg">
<path d="M32 64C49.6731 64 64 49.6731 64 32C64 14.3269 49.6731 0 32 0C14.3269 0 0 14.3269 0 32C0 49.6731 14.3269 64 32 64Z" fill="#6E1DBA"/>
<path fill-rule="evenodd" clip-rule="evenodd" d="M25.1429 50.2848C23.9301 50.2871 22.7666 49.8049 21.9109 48.9454L12.768 39.8025C11.0356 38.0088 11.0604 35.1576 12.8237 33.3942C14.5871 31.6309 17.4383 31.6061 19.232 33.3385L25.1429 39.2471L44.768 19.6242C45.9158 18.4359 47.6155 17.9593 49.2138 18.3776C50.8121 18.796 52.0603 20.0442 52.4786 21.6425C52.897 23.2408 52.4204 24.9405 51.232 26.0882L28.3749 48.9454C27.5192 49.8049 26.3557 50.2871 25.1429 50.2848Z" fill="#FCFAFF"/>
</svg>
