<svg width="64" height="64" viewBox="0 0 64 64" fill="none" xmlns="http://www.w3.org/2000/svg">
<g clip-path="url(#clip0_86_2443)">
<path fill-rule="evenodd" clip-rule="evenodd" d="M59.5861 21.2744L62.3337 23.4482C63.3848 24.2867 63.9978 25.5574 63.9999 26.902V59.5861C63.9999 62.0238 62.0238 63.9999 59.5861 63.9999H4.41373C1.97606 63.9999 -6.10352e-05 62.0238 -6.10352e-05 59.5861V26.902C0.00203892 25.5574 0.615077 24.2867 1.66615 23.4482L4.41373 21.2744H59.5861Z" fill="#711DB9"/>
<path fill-rule="evenodd" clip-rule="evenodd" d="M4.4137 52.6786V2.2069C4.41733 0.98957 5.40327 0.00363564 6.62059 0H57.3792C58.5965 0.00363564 59.5825 0.98957 59.5861 2.2069V51.531L4.4137 52.6786Z" fill="#FCFAFF"/>
<path d="M31.9999 35.3106C40.5318 35.3106 47.4482 28.3942 47.4482 19.8623C47.4482 11.3305 40.5318 4.41406 31.9999 4.41406C23.4681 4.41406 16.5516 11.3305 16.5516 19.8623C16.5516 28.3942 23.4681 35.3106 31.9999 35.3106Z" fill="#FF9E02"/>
<path fill-rule="evenodd" clip-rule="evenodd" d="M28.6896 28.6893C28.1041 28.6904 27.5424 28.4576 27.1293 28.0427L22.7155 23.6289C21.8792 22.763 21.8911 21.3865 22.7424 20.5352C23.5937 19.684 24.9701 19.672 25.8361 20.5084L28.6896 23.3608L38.1638 13.8877C38.7179 13.314 39.5384 13.0839 40.31 13.2858C41.0816 13.4878 41.6842 14.0904 41.8862 14.862C42.0881 15.6336 41.858 16.4541 41.2843 17.0082L30.2499 28.0427C29.8368 28.4576 29.2751 28.6904 28.6896 28.6893Z" fill="#FCFAFF"/>
<path fill-rule="evenodd" clip-rule="evenodd" d="M64 27.4873L63.9999 59.5866C64.0052 60.8393 63.4704 62.0336 62.5323 62.8639L41.7213 46.6873L64 27.4873Z" fill="#995BD5"/>
<path fill-rule="evenodd" clip-rule="evenodd" d="M62.5324 62.8631C61.7249 63.5938 60.6751 63.9988 59.5861 63.9997H4.41374C3.3248 63.9988 2.27494 63.5938 1.46753 62.8631L22.2786 46.6866L30.6317 40.1983C31.4354 39.5693 32.5645 39.5693 33.3682 40.1983L41.7213 46.6866L62.5324 62.8631Z" fill="#C099F2"/>
<path fill-rule="evenodd" clip-rule="evenodd" d="M22.2785 46.6873L1.4675 62.8639C0.529427 62.0336 -0.00536925 60.8393 -8.3251e-05 59.5866L-0.00012207 27.4873L22.2785 46.6873Z" fill="#995BD5"/>
</g>
<defs>
<clipPath id="clip0_86_2443">
<rect width="64" height="64" fill="white"/>
</clipPath>
</defs>
</svg>
