<svg width="56" height="57" viewBox="0 0 56 57" fill="none" xmlns="http://www.w3.org/2000/svg">
<g clip-path="url(#clip0_3_10960)">
<path d="M56 0.703125H0.406067V56.2971H56V0.703125Z" fill="#DEE7EF"/>
<path fill-rule="evenodd" clip-rule="evenodd" d="M33.7631 25.1646C33.7631 24.5505 33.2653 24.0527 32.6513 24.0527H23.7562C23.1421 24.0527 22.6443 24.5505 22.6443 25.1646V31.8359C22.6443 32.45 23.1421 32.9478 23.7562 32.9478H32.6513C33.2653 32.9478 33.7631 32.45 33.7631 31.8359V25.1646ZM26.8139 25.7206C27.2744 25.7206 27.6478 26.0939 27.6478 26.5545C27.6478 27.015 27.2744 27.3884 26.8139 27.3884C26.3534 27.3884 25.98 27.015 25.98 26.5545C25.98 26.0939 26.3534 25.7206 26.8139 25.7206ZM31.8173 31.2799C31.9708 31.2799 32.0953 31.1555 32.0953 31.002V30.813C32.0949 30.7529 32.0755 30.6945 32.0397 30.6462L29.677 27.494C29.6232 27.426 29.5413 27.3864 29.4546 27.3864C29.3679 27.3864 29.286 27.426 29.2322 27.494L27.6311 29.5621C27.5781 29.6314 27.496 29.6724 27.4087 29.6733C27.3269 29.6734 27.2493 29.6366 27.1975 29.5732L26.3914 28.6003C26.3378 28.5361 26.2582 28.4993 26.1746 28.5002C26.0982 28.5083 26.0282 28.5462 25.98 28.6059L24.3733 30.6462C24.3337 30.6927 24.3119 30.7519 24.3122 30.813V31.002C24.3122 31.1555 24.4366 31.2799 24.5901 31.2799H31.8173Z" fill="#8A93A1"/>
</g>
<defs>
<clipPath id="clip0_3_10960">
<rect x="0.406067" y="0.703125" width="55.5939" height="55.5939" rx="27.797" fill="white"/>
</clipPath>
</defs>
</svg>
