<svg width="21" height="20" viewBox="0 0 21 20" fill="none" xmlns="http://www.w3.org/2000/svg">
<g clip-path="url(#clip0_3_10965)">
<path d="M9.58136 1.15399C9.92252 0.344501 11.0845 0.344502 11.4256 1.154L13.4391 5.93176C13.583 6.27302 13.9082 6.5062 14.2815 6.53573L19.5078 6.94925C20.3933 7.01931 20.7524 8.10991 20.0777 8.68027L16.0958 12.0466C15.8114 12.2871 15.6872 12.6644 15.7741 13.0238L16.9906 18.0572C17.1967 18.9099 16.2567 19.584 15.4986 19.1271L11.0241 16.4297C10.7045 16.2371 10.3025 16.2371 9.98292 16.4297L5.50838 19.1271C4.75026 19.584 3.81023 18.9099 4.01635 18.0572L5.2329 13.0238C5.3198 12.6644 5.19559 12.2871 4.91118 12.0466L0.9292 8.68027C0.254539 8.10991 0.6136 7.01931 1.4991 6.94925L6.72551 6.53573C7.09882 6.5062 7.42401 6.27302 7.56783 5.93176L9.58136 1.15399Z" fill="#33384A"/>
</g>
<defs>
<clipPath id="clip0_3_10965">
<rect width="19.864" height="18.7277" fill="white" transform="translate(0.571533 0.546875)"/>
</clipPath>
</defs>
</svg>
