<svg width="20" height="20" viewBox="0 0 20 20" fill="none" xmlns="http://www.w3.org/2000/svg">
<g clip-path="url(#clip0_3_10976)">
<path d="M9.1456 1.15399C9.48676 0.344501 10.6487 0.344502 10.9899 1.154L13.0033 5.93176C13.1473 6.27302 13.4724 6.5062 13.8457 6.53573L19.0721 6.94925C19.9576 7.01931 20.3166 8.10991 19.642 8.68027L15.6601 12.0466C15.3757 12.2871 15.2514 12.6644 15.3383 13.0238L16.5548 18.0572C16.7609 18.9099 15.821 19.584 15.0628 19.1271L10.5883 16.4297C10.2687 16.2371 9.86675 16.2371 9.54716 16.4297L5.07262 19.1271C4.31449 19.584 3.37447 18.9099 3.58059 18.0572L4.79714 13.0238C4.88404 12.6644 4.75983 12.2871 4.47542 12.0466L0.493439 8.68027C-0.181221 8.10991 0.17784 7.01931 1.06334 6.94925L6.28975 6.53573C6.66306 6.5062 6.98825 6.27302 7.13207 5.93176L9.1456 1.15399Z" fill="#FF9E02"/>
</g>
<defs>
<clipPath id="clip0_3_10976">
<rect width="19.864" height="18.7277" fill="white" transform="translate(0.135895 0.546875)"/>
</clipPath>
</defs>
</svg>
