<svg width="24" height="25" viewBox="0 0 24 25" fill="none" xmlns="http://www.w3.org/2000/svg">
<path fill-rule="evenodd" clip-rule="evenodd" d="M17.3333 0.822266H6.66667C2.98477 0.822266 0 3.80704 0 7.48893V18.1556C0 21.8375 2.98477 24.8223 6.66667 24.8223H17.3333C21.0152 24.8223 24 21.8375 24 18.1556V7.48893C24 3.80704 21.0152 0.822266 17.3333 0.822266ZM21.6667 18.1556C21.6593 20.5457 19.7235 22.4816 17.3333 22.4889H6.66667C4.27647 22.4816 2.34065 20.5457 2.33333 18.1556V7.48893C2.34065 5.09873 4.27647 3.16292 6.66667 3.1556H17.3333C19.7235 3.16292 21.6593 5.09873 21.6667 7.48893V18.1556ZM18.3333 7.82227C19.0697 7.82227 19.6667 7.22531 19.6667 6.48893C19.6667 5.75256 19.0697 5.1556 18.3333 5.1556C17.5969 5.1556 17 5.75256 17 6.48893C17 7.22531 17.5969 7.82227 18.3333 7.82227ZM12 6.82227C8.68629 6.82227 6 9.50856 6 12.8223C6 16.136 8.68629 18.8223 12 18.8223C15.3137 18.8223 18 16.136 18 12.8223C18.0036 11.2299 17.3725 9.70169 16.2465 8.57571C15.1205 7.44972 13.5924 6.81872 12 6.82227ZM8.33333 12.8223C8.33333 14.8473 9.97493 16.4889 12 16.4889C14.0251 16.4889 15.6667 14.8473 15.6667 12.8223C15.6667 10.7972 14.0251 9.1556 12 9.1556C9.97493 9.1556 8.33333 10.7972 8.33333 12.8223Z" fill="#FCFAFF"/>
</svg>
