<svg width="24" height="25" viewBox="0 0 24 25" fill="none" xmlns="http://www.w3.org/2000/svg">
<path fill-rule="evenodd" clip-rule="evenodd" d="M2 0.822266C0.895427 0.822266 0 1.71769 0 2.82227V22.8223C0 23.9268 0.895427 24.8223 2 24.8223H22C23.1045 24.8223 24 23.9268 24 22.8223V2.82227C24 1.71769 23.1045 0.822266 22 0.822266H2ZM7.36101 6.15923C7.36852 7.43423 6.41415 8.21985 5.28164 8.21423C4.21476 8.2086 3.28476 7.35923 3.29039 6.16111C3.29601 5.03423 4.18664 4.1286 5.34352 4.15485C6.51727 4.18111 7.36852 5.04173 7.36101 6.15923ZM12.3729 9.83795H9.01295H9.01107V21.2511H12.5623V20.9848C12.5623 20.4783 12.5619 19.9716 12.5615 19.4648C12.5604 18.1131 12.5592 16.7599 12.5661 15.4085C12.568 15.0804 12.5829 14.7392 12.6673 14.426C12.9841 13.256 14.0361 12.5004 15.2099 12.6861C15.9636 12.8041 16.4623 13.2411 16.6723 13.9517C16.8017 14.396 16.8599 14.8741 16.8655 15.3373C16.8807 16.7341 16.8785 18.1309 16.8764 19.5279C16.8756 20.0209 16.8748 20.5143 16.8748 21.0073V21.2492H20.4373V20.9755C20.4373 20.3728 20.4371 19.7703 20.4367 19.1677C20.436 17.6617 20.4352 16.1557 20.4392 14.6492C20.4411 13.9685 20.368 13.2973 20.2011 12.6392C19.9517 11.6604 19.4361 10.8504 18.598 10.2655C18.0036 9.84919 17.3511 9.58107 16.6217 9.55107C16.5387 9.54761 16.4549 9.54309 16.3708 9.53855C15.9979 9.51839 15.6188 9.49791 15.2623 9.56981C14.2423 9.77419 13.3461 10.2411 12.6692 11.0641C12.5905 11.1585 12.5136 11.2544 12.3988 11.3975L12.3729 11.4299V9.83795ZM3.57552 21.2548H7.10989V9.84537H3.57552V21.2548Z" fill="#FCFAFF"/>
</svg>
